<svg xmlns="http://www.w3.org/2000/svg" xmlns:xlink="http://www.w3.org/1999/xlink" viewBox="0 0 331.28 334.2"><defs><style>.cls-1{isolation:isolate;}.cls-2{fill:#f1f1f4;}.cls-3{fill:#e0f3ff;}.cls-4{fill:url(#Áåçûìÿííûé_ãðàäèåíò_29);}.cls-5{fill:url(#Áåçûìÿííûé_ãðàäèåíò_28);}.cls-6{fill:#e5e2ff;}.cls-7{fill:url(#Áåçûìÿííûé_ãðàäèåíò_28-2);}.cls-8,.cls-9{opacity:0.62;}.cls-118,.cls-17,.cls-18,.cls-19,.cls-22,.cls-24,.cls-30,.cls-33,.cls-35,.cls-38,.cls-39,.cls-40,.cls-41,.cls-42,.cls-43,.cls-44,.cls-45,.cls-46,.cls-47,.cls-48,.cls-49,.cls-50,.cls-51,.cls-52,.cls-53,.cls-54,.cls-57,.cls-58,.cls-59,.cls-60,.cls-61,.cls-62,.cls-66,.cls-77,.cls-8,.cls-80,.cls-81,.cls-82,.cls-86,.cls-87,.cls-9,.cls-94,.cls-95,.cls-96,.cls-97,.cls-98,.cls-99{mix-blend-mode:multiply;}.cls-8{fill:url(#Áåçûìÿííûé_ãðàäèåíò_27);}.cls-9{fill:url(#Áåçûìÿííûé_ãðàäèåíò_94);}.cls-10,.cls-118,.cls-13,.cls-14,.cls-22,.cls-24,.cls-39,.cls-40,.cls-41,.cls-42,.cls-43,.cls-44,.cls-45,.cls-46,.cls-47,.cls-49,.cls-51,.cls-52,.cls-53,.cls-54,.cls-57,.cls-59,.cls-60,.cls-61,.cls-62,.cls-82{opacity:0.5;}.cls-10,.cls-13,.cls-14{mix-blend-mode:screen;}.cls-10{fill:url(#Áåçûìÿííûé_ãðàäèåíò_95);}.cls-11{fill:#fff;}.cls-12{fill:url(#Áåçûìÿííûé_ãðàäèåíò_74);}.cls-13{fill:url(#Áåçûìÿííûé_ãðàäèåíò_83);}.cls-14{fill:url(#Áåçûìÿííûé_ãðàäèåíò_83-2);}.cls-15{fill:url(#Áåçûìÿííûé_ãðàäèåíò_26);}.cls-16{fill:url(#Áåçûìÿííûé_ãðàäèåíò_26-2);}.cls-17,.cls-18,.cls-19,.cls-48{opacity:0.76;}.cls-17{fill:url(#Áåçûìÿííûé_ãðàäèåíò_70);}.cls-18{fill:url(#Áåçûìÿííûé_ãðàäèåíò_70-2);}.cls-19{fill:url(#Áåçûìÿííûé_ãðàäèåíò_70-3);}.cls-20{fill:#fe9083;}.cls-21{fill:url(#Áåçûìÿííûé_ãðàäèåíò_354);}.cls-22{fill:url(#Áåçûìÿííûé_ãðàäèåíò_70-4);}.cls-23{fill:url(#Áåçûìÿííûé_ãðàäèåíò_26-3);}.cls-24{fill:url(#Áåçûìÿííûé_ãðàäèåíò_70-5);}.cls-25{fill:url(#Áåçûìÿííûé_ãðàäèåíò_178);}.cls-26{fill:url(#Áåçûìÿííûé_ãðàäèåíò_55);}.cls-27{fill:#cb4d7a;}.cls-28{fill:#ee8183;}.cls-29{fill:url(#Áåçûìÿííûé_ãðàäèåíò_71);}.cls-30,.cls-35,.cls-66,.cls-77,.cls-80,.cls-81,.cls-92,.cls-94{opacity:0.6;}.cls-30{fill:url(#Áåçûìÿííûé_ãðàäèåíò_48);}.cls-31{fill:url(#Áåçûìÿííûé_ãðàäèåíò_71-2);}.cls-32{fill:#e28183;}.cls-33,.cls-38{opacity:0.91;}.cls-33{fill:url(#Áåçûìÿííûé_ãðàäèåíò_73);}.cls-34{fill:url(#Áåçûìÿííûé_ãðàäèåíò_71-3);}.cls-35{fill:url(#Áåçûìÿííûé_ãðàäèåíò_48-2);}.cls-36{fill:url(#Áåçûìÿííûé_ãðàäèåíò_64);}.cls-37{fill:url(#Áåçûìÿííûé_ãðàäèåíò_64-2);}.cls-38{fill:url(#Áåçûìÿííûé_ãðàäèåíò_73-2);}.cls-39{fill:url(#Áåçûìÿííûé_ãðàäèåíò_70-6);}.cls-40{fill:url(#Áåçûìÿííûé_ãðàäèåíò_70-7);}.cls-41{fill:url(#Áåçûìÿííûé_ãðàäèåíò_4);}.cls-42{fill:url(#Áåçûìÿííûé_ãðàäèåíò_4-2);}.cls-43{fill:url(#Áåçûìÿííûé_ãðàäèåíò_4-3);}.cls-44{fill:url(#Áåçûìÿííûé_ãðàäèåíò_4-4);}.cls-45{fill:url(#Áåçûìÿííûé_ãðàäèåíò_4-5);}.cls-46{fill:url(#Áåçûìÿííûé_ãðàäèåíò_4-6);}.cls-47{fill:url(#Áåçûìÿííûé_ãðàäèåíò_4-7);}.cls-48{fill:url(#Áåçûìÿííûé_ãðàäèåíò_70-8);}.cls-49{fill:url(#Áåçûìÿííûé_ãðàäèåíò_70-9);}.cls-50,.cls-58,.cls-95,.cls-96,.cls-97,.cls-98{opacity:0.3;}.cls-50{fill:url(#Áåçûìÿííûé_ãðàäèåíò_70-10);}.cls-51{fill:url(#Áåçûìÿííûé_ãðàäèåíò_4-8);}.cls-52{fill:url(#Áåçûìÿííûé_ãðàäèåíò_70-11);}.cls-53{fill:url(#Áåçûìÿííûé_ãðàäèåíò_4-9);}.cls-54{fill:url(#Áåçûìÿííûé_ãðàäèåíò_4-10);}.cls-55{fill:url(#Áåçûìÿííûé_ãðàäèåíò_25);}.cls-56{fill:#ebefff;}.cls-57{fill:url(#Áåçûìÿííûé_ãðàäèåíò_70-12);}.cls-58{fill:url(#Áåçûìÿííûé_ãðàäèåíò_70-13);}.cls-59{fill:url(#Áåçûìÿííûé_ãðàäèåíò_70-14);}.cls-60{fill:url(#Áåçûìÿííûé_ãðàäèåíò_70-15);}.cls-61{fill:url(#Áåçûìÿííûé_ãðàäèåíò_70-16);}.cls-62{fill:#7a4ac0;}.cls-63{fill:url(#Áåçûìÿííûé_ãðàäèåíò_71-4);}.cls-64{fill:url(#Áåçûìÿííûé_ãðàäèåíò_71-5);}.cls-65{fill:url(#Áåçûìÿííûé_ãðàäèåíò_387);}.cls-66{fill:url(#Áåçûìÿííûé_ãðàäèåíò_48-3);}.cls-67{fill:#38368e;}.cls-68{fill:url(#Áåçûìÿííûé_ãðàäèåíò_59);}.cls-69{fill:url(#Áåçûìÿííûé_ãðàäèåíò_184);}.cls-70{fill:#ffebed;}.cls-71{fill:#7f9ec9;}.cls-72{fill:#131163;}.cls-73{fill:#c6659c;}.cls-74{fill:#cb5f7d;}.cls-75{fill:#9f4a8b;}.cls-76{fill:#ffbcaf;}.cls-77{fill:url(#Áåçûìÿííûé_ãðàäèåíò_48-4);}.cls-78{fill:url(#Áåçûìÿííûé_ãðàäèåíò_292);}.cls-79{fill:#d2726c;}.cls-80{fill:url(#Áåçûìÿííûé_ãðàäèåíò_35);}.cls-81{fill:url(#Áåçûìÿííûé_ãðàäèåíò_52);}.cls-82{fill:url(#Áåçûìÿííûé_ãðàäèåíò_397);}.cls-83{fill:url(#Áåçûìÿííûé_ãðàäèåíò_141);}.cls-84{fill:url(#Áåçûìÿííûé_ãðàäèåíò_141-2);}.cls-85{fill:url(#Áåçûìÿííûé_ãðàäèåíò_141-3);}.cls-86,.cls-87{opacity:0.8;}.cls-86{fill:url(#Áåçûìÿííûé_ãðàäèåíò_285);}.cls-87{fill:url(#Áåçûìÿííûé_ãðàäèåíò_285-2);}.cls-88{fill:#34c7ff;}.cls-89{fill:url(#Áåçûìÿííûé_ãðàäèåíò_141-4);}.cls-90{fill:url(#Áåçûìÿííûé_ãðàäèåíò_141-5);}.cls-91{fill:url(#Áåçûìÿííûé_ãðàäèåíò_141-6);}.cls-92{fill:#36d1f7;}.cls-93{fill:#744ca2;}.cls-94{fill:url(#Áåçûìÿííûé_ãðàäèåíò_89);}.cls-95{fill:url(#Áåçûìÿííûé_ãðàäèåíò_85);}.cls-96{fill:url(#Áåçûìÿííûé_ãðàäèåíò_85-2);}.cls-97{fill:url(#Áåçûìÿííûé_ãðàäèåíò_85-3);}.cls-98{fill:url(#Áåçûìÿííûé_ãðàäèåíò_85-4);}.cls-99{fill:#d1d4fb;}.cls-100,.cls-119{mix-blend-mode:soft-light;}.cls-101{fill:#e0ffff;}.cls-102{fill:url(#Áåçûìÿííûé_ãðàäèåíò_65);}.cls-103{fill:url(#Áåçûìÿííûé_ãðàäèåíò_14);}.cls-104{opacity:0.81;fill:url(#Áåçûìÿííûé_ãðàäèåíò_115);}.cls-105{fill:#473da2;}.cls-106{fill:url(#Áåçûìÿííûé_ãðàäèåíò_302);}.cls-107{fill:url(#Áåçûìÿííûé_ãðàäèåíò_302-2);}.cls-108{fill:url(#Áåçûìÿííûé_ãðàäèåíò_322);}.cls-109{fill:url(#Áåçûìÿííûé_ãðàäèåíò_322-2);}.cls-110{fill:url(#Áåçûìÿííûé_ãðàäèåíò_25-2);}.cls-111{fill:url(#Áåçûìÿííûé_ãðàäèåíò_25-3);}.cls-112,.cls-114{opacity:0.73;}.cls-112{fill:url(#Áåçûìÿííûé_ãðàäèåíò_97);}.cls-113{fill:#953da2;}.cls-114{fill:url(#Áåçûìÿííûé_ãðàäèåíò_97-2);}.cls-115,.cls-116,.cls-117,.cls-118,.cls-119,.cls-123,.cls-124,.cls-125,.cls-126{fill-rule:evenodd;}.cls-115{fill:url(#Áåçûìÿííûé_ãðàäèåíò_206);}.cls-116{fill:url(#Áåçûìÿííûé_ãðàäèåíò_206-2);}.cls-117{fill:url(#Áåçûìÿííûé_ãðàäèåíò_107);}.cls-118{fill:#601734;}.cls-119{fill:#b3d9ff;}.cls-120{fill:#ff1d9c;}.cls-121{fill:#6877ff;}.cls-122{fill:#4f31e0;}.cls-123{fill:url(#Áåçûìÿííûé_ãðàäèåíò_107-2);}.cls-124{fill:url(#Áåçûìÿííûé_ãðàäèåíò_206-3);}.cls-125{fill:url(#Áåçûìÿííûé_ãðàäèåíò_107-3);}.cls-126{fill:url(#Áåçûìÿííûé_ãðàäèåíò_206-4);}.cls-127{fill:url(#Áåçûìÿííûé_ãðàäèåíò_70-17);}</style><linearGradient id="Áåçûìÿííûé_ãðàäèåíò_29" x1="64.87" y1="202.96" x2="64.87" y2="152.1" gradientTransform="matrix(0.91, -0.42, 0.42, 0.91, -71.22, -8.59)" gradientUnits="userSpaceOnUse"><stop offset="0" stop-color="#dbccff"/><stop offset="1" stop-color="#d1bbff"/></linearGradient><linearGradient id="Áåçûìÿííûé_ãðàäèåíò_28" x1="64.87" y1="204.94" x2="64.87" y2="154.08" gradientTransform="matrix(0.91, -0.42, 0.42, 0.91, -71.22, -8.59)" gradientUnits="userSpaceOnUse"><stop offset="0" stop-color="#b5a6e7"/><stop offset="1" stop-color="#7760bf"/></linearGradient><linearGradient id="Áåçûìÿííûé_ãðàäèåíò_28-2" x1="64.87" y1="192.3" x2="64.87" y2="170.86" xlink:href="#Áåçûìÿííûé_ãðàäèåíò_28"/><linearGradient id="Áåçûìÿííûé_ãðàäèåíò_27" x1="61.83" y1="171.29" x2="67.91" y2="171.29" gradientTransform="matrix(0.91, -0.42, 0.42, 0.91, -71.22, -8.59)" gradientUnits="userSpaceOnUse"><stop offset="0" stop-color="#8b8be0"/><stop offset="1" stop-color="#a177b7"/></linearGradient><linearGradient id="Áåçûìÿííûé_ãðàäèåíò_94" x1="64.87" y1="172.7" x2="64.87" y2="169.02" gradientTransform="matrix(0.91, -0.42, 0.42, 0.91, -71.22, -8.59)" gradientUnits="userSpaceOnUse"><stop offset="0" stop-color="#fff"/><stop offset="1" stop-color="#a177b7"/></linearGradient><linearGradient id="Áåçûìÿííûé_ãðàäèåíò_95" x1="68.09" y1="194.49" x2="68.09" y2="170.85" gradientTransform="matrix(0.91, -0.42, 0.42, 0.91, -71.22, -8.59)" gradientUnits="userSpaceOnUse"><stop offset="0"/><stop offset="1" stop-color="#fff"/></linearGradient><linearGradient id="Áåçûìÿííûé_ãðàäèåíò_74" x1="153.58" y1="334.2" x2="153.58" y2="195.63" gradientUnits="userSpaceOnUse"><stop offset="0" stop-color="#6456c0"/><stop offset="1" stop-color="#5f2c95"/></linearGradient><radialGradient id="Áåçûìÿííûé_ãðàäèåíò_83" cx="98.46" cy="289.88" r="28.66" gradientTransform="matrix(0.65, 0.15, -0.39, 1.67, 164.32, -234.96)" gradientUnits="userSpaceOnUse"><stop offset="0" stop-color="#4b474b"/><stop offset="1"/></radialGradient><radialGradient id="Áåçûìÿííûé_ãðàäèåíò_83-2" cx="250.16" cy="272.45" r="24.88" gradientTransform="matrix(0.64, -0.18, 0.59, 2.09, -129.59, -259.71)" xlink:href="#Áåçûìÿííûé_ãðàäèåíò_83"/><linearGradient id="Áåçûìÿííûé_ãðàäèåíò_26" x1="117.76" y1="266.11" x2="149.69" y2="266.11" gradientUnits="userSpaceOnUse"><stop offset="0" stop-color="#9e8cef"/><stop offset="1" stop-color="#caafee"/></linearGradient><linearGradient id="Áåçûìÿííûé_ãðàäèåíò_26-2" x1="181.22" y1="272.9" x2="215.48" y2="272.9" gradientTransform="matrix(-1, 0, 0, 1, 370.8, 0)" xlink:href="#Áåçûìÿííûé_ãðàäèåíò_26"/><linearGradient id="Áåçûìÿííûé_ãðàäèåíò_70" x1="151.67" y1="331.2" x2="151.67" y2="195.63" gradientUnits="userSpaceOnUse"><stop offset="0" stop-color="#ccf"/><stop offset="1" stop-color="#755cbb"/></linearGradient><linearGradient id="Áåçûìÿííûé_ãðàäèåíò_70-2" x1="158.78" y1="227.5" x2="158.78" y2="210.12" xlink:href="#Áåçûìÿííûé_ãðàäèåíò_70"/><linearGradient id="Áåçûìÿííûé_ãðàäèåíò_70-3" x1="138.65" y1="221.11" x2="138.65" y2="204.08" xlink:href="#Áåçûìÿííûé_ãðàäèåíò_70"/><linearGradient id="Áåçûìÿííûé_ãðàäèåíò_354" x1="155.92" y1="99.65" x2="155.92" y2="74.21" gradientUnits="userSpaceOnUse"><stop offset="0" stop-color="#d5cdf8"/><stop offset="1" stop-color="#f3edfb"/></linearGradient><linearGradient id="Áåçûìÿííûé_ãðàäèåíò_70-4" x1="142.83" y1="86.91" x2="169.02" y2="86.91" xlink:href="#Áåçûìÿííûé_ãðàäèåíò_70"/><linearGradient id="Áåçûìÿííûé_ãðàäèåíò_26-3" x1="148.43" y1="201.3" x2="148.43" y2="73.11" xlink:href="#Áåçûìÿííûé_ãðàäèåíò_26"/><linearGradient id="Áåçûìÿííûé_ãðàäèåíò_70-5" x1="95.23" y1="121.42" x2="126.45" y2="121.42" xlink:href="#Áåçûìÿííûé_ãðàäèåíò_70"/><linearGradient id="Áåçûìÿííûé_ãðàäèåíò_178" x1="94.26" y1="157.32" x2="94.26" y2="97.38" gradientUnits="userSpaceOnUse"><stop offset="0" stop-color="#9e8cef"/><stop offset="1" stop-color="#dac7f3"/></linearGradient><linearGradient id="Áåçûìÿííûé_ãðàäèåíò_55" x1="197.35" y1="140.05" x2="237.58" y2="140.05" gradientUnits="userSpaceOnUse"><stop offset="0" stop-color="#a999f1"/><stop offset="1" stop-color="#dac7f3"/></linearGradient><linearGradient id="Áåçûìÿííûé_ãðàäèåíò_71" x1="81.18" y1="89.2" x2="81.18" y2="73.39" gradientUnits="userSpaceOnUse"><stop offset="0.02" stop-color="#ffc2a9"/><stop offset="1" stop-color="#ff9595"/></linearGradient><linearGradient id="Áåçûìÿííûé_ãðàäèåíò_48" x1="91.13" y1="88.83" x2="91.13" y2="62.66" gradientUnits="userSpaceOnUse"><stop offset="0" stop-color="#ffeadb"/><stop offset="0.99" stop-color="#c27cb6"/></linearGradient><linearGradient id="Áåçûìÿííûé_ãðàäèåíò_71-2" x1="90.28" y1="106.63" x2="90.28" y2="66.29" xlink:href="#Áåçûìÿííûé_ãðàäèåíò_71"/><linearGradient id="Áåçûìÿííûé_ãðàäèåíò_73" x1="83.07" y1="100.33" x2="95.75" y2="100.33" gradientUnits="userSpaceOnUse"><stop offset="0.02" stop-color="#d1a1d6"/><stop offset="0.99" stop-color="#bd89c4"/></linearGradient><linearGradient id="Áåçûìÿííûé_ãðàäèåíò_71-3" x1="238.41" y1="131.2" x2="238.41" y2="77.26" xlink:href="#Áåçûìÿííûé_ãðàäèåíò_71"/><linearGradient id="Áåçûìÿííûé_ãðàäèåíò_48-2" x1="244.78" y1="113.91" x2="244.78" y2="87.12" xlink:href="#Áåçûìÿííûé_ãðàäèåíò_48"/><linearGradient id="Áåçûìÿííûé_ãðàäèåíò_64" x1="250.07" y1="104.67" x2="250.07" y2="92.65" gradientUnits="userSpaceOnUse"><stop offset="0" stop-color="#ffb0b0"/><stop offset="0.98" stop-color="#ffc2a9"/></linearGradient><linearGradient id="Áåçûìÿííûé_ãðàäèåíò_64-2" x1="257.03" y1="106.52" x2="257.03" y2="99.93" xlink:href="#Áåçûìÿííûé_ãðàäèåíò_64"/><linearGradient id="Áåçûìÿííûé_ãðàäèåíò_73-2" x1="228.86" y1="119.65" x2="241.11" y2="119.65" xlink:href="#Áåçûìÿííûé_ãðàäèåíò_73"/><linearGradient id="Áåçûìÿííûé_ãðàäèåíò_70-6" x1="211.81" y1="161.93" x2="211.81" y2="101.56" xlink:href="#Áåçûìÿííûé_ãðàäèåíò_70"/><linearGradient id="Áåçûìÿííûé_ãðàäèåíò_70-7" x1="78.87" y1="149.77" x2="179.85" y2="149.77" xlink:href="#Áåçûìÿííûé_ãðàäèåíò_70"/><linearGradient id="Áåçûìÿííûé_ãðàäèåíò_4" x1="167.9" y1="132.87" x2="187.2" y2="132.87" gradientUnits="userSpaceOnUse"><stop offset="0" stop-color="#ccedff"/><stop offset="1" stop-color="#755cbb"/></linearGradient><linearGradient id="Áåçûìÿííûé_ãðàäèåíò_4-2" x1="150.39" y1="166.75" x2="178.76" y2="166.75" xlink:href="#Áåçûìÿííûé_ãðàäèåíò_4"/><linearGradient id="Áåçûìÿííûé_ãðàäèåíò_4-3" x1="151.71" y1="179.57" x2="182.01" y2="179.57" xlink:href="#Áåçûìÿííûé_ãðàäèåíò_4"/><linearGradient id="Áåçûìÿííûé_ãðàäèåíò_4-4" x1="125.62" y1="147.81" x2="125.62" y2="113.8" xlink:href="#Áåçûìÿííûé_ãðàäèåíò_4"/><linearGradient id="Áåçûìÿííûé_ãðàäèåíò_4-5" x1="128.36" y1="150.67" x2="128.36" y2="124.89" xlink:href="#Áåçûìÿííûé_ãðàäèåíò_4"/><linearGradient id="Áåçûìÿííûé_ãðàäèåíò_4-6" x1="87.61" y1="117.71" x2="87.61" y2="98.23" xlink:href="#Áåçûìÿííûé_ãðàäèåíò_4"/><linearGradient id="Áåçûìÿííûé_ãðàäèåíò_4-7" x1="103.37" y1="100.56" x2="111.23" y2="100.56" xlink:href="#Áåçûìÿííûé_ãðàäèåíò_4"/><linearGradient id="Áåçûìÿííûé_ãðàäèåíò_70-8" x1="188.72" y1="147.81" x2="188.72" y2="111.71" xlink:href="#Áåçûìÿííûé_ãðàäèåíò_70"/><linearGradient id="Áåçûìÿííûé_ãðàäèåíò_70-9" x1="229.31" y1="140.05" x2="229.31" y2="121.18" xlink:href="#Áåçûìÿííûé_ãðàäèåíò_70"/><linearGradient id="Áåçûìÿííûé_ãðàäèåíò_70-10" x1="207.91" y1="139.21" x2="207.91" y2="124.78" xlink:href="#Áåçûìÿííûé_ãðàäèåíò_70"/><linearGradient id="Áåçûìÿííûé_ãðàäèåíò_4-8" x1="83.53" y1="118.96" x2="83.53" y2="113.6" xlink:href="#Áåçûìÿííûé_ãðàäèåíò_4"/><linearGradient id="Áåçûìÿííûé_ãðàäèåíò_70-11" x1="97.84" y1="135.29" x2="97.84" y2="106.01" xlink:href="#Áåçûìÿííûé_ãðàäèåíò_70"/><linearGradient id="Áåçûìÿííûé_ãðàäèåíò_4-9" x1="173.16" y1="114.68" x2="173.16" y2="92.65" xlink:href="#Áåçûìÿííûé_ãðàäèåíò_4"/><linearGradient id="Áåçûìÿííûé_ãðàäèåíò_4-10" x1="144.3" y1="111.7" x2="144.3" y2="81.3" xlink:href="#Áåçûìÿííûé_ãðàäèåíò_4"/><linearGradient id="Áåçûìÿííûé_ãðàäèåíò_25" x1="134.03" y1="117.27" x2="184.82" y2="117.27" gradientUnits="userSpaceOnUse"><stop offset="0" stop-color="#8642a0"/><stop offset="1" stop-color="#6456c0"/></linearGradient><linearGradient id="Áåçûìÿííûé_ãðàäèåíò_70-12" x1="138.41" y1="87.96" x2="171.46" y2="87.96" xlink:href="#Áåçûìÿííûé_ãðàäèåíò_70"/><linearGradient id="Áåçûìÿííûé_ãðàäèåíò_70-13" x1="223.37" y1="137.9" x2="223.37" y2="118.77" xlink:href="#Áåçûìÿííûé_ãðàäèåíò_70"/><linearGradient id="Áåçûìÿííûé_ãðàäèåíò_70-14" x1="196.34" y1="159.47" x2="196.34" y2="101.56" xlink:href="#Áåçûìÿííûé_ãðàäèåíò_70"/><linearGradient id="Áåçûìÿííûé_ãðàäèåíò_70-15" x1="134.07" y1="186.68" x2="134.07" y2="170.08" xlink:href="#Áåçûìÿííûé_ãðàäèåíò_70"/><linearGradient id="Áåçûìÿííûé_ãðàäèåíò_70-16" x1="166.32" y1="182.12" x2="166.32" y2="174.06" xlink:href="#Áåçûìÿííûé_ãðàäèåíò_70"/><linearGradient id="Áåçûìÿííûé_ãðàäèåíò_71-4" x1="165.96" y1="78.48" x2="165.96" y2="23.32" xlink:href="#Áåçûìÿííûé_ãðàäèåíò_71"/><linearGradient id="Áåçûìÿííûé_ãðàäèåíò_71-5" x1="145.4" y1="56.22" x2="145.4" y2="39.96" xlink:href="#Áåçûìÿííûé_ãðàäèåíò_71"/><linearGradient id="Áåçûìÿííûé_ãðàäèåíò_387" x1="173.63" y1="62.37" x2="174.31" y2="58.82" gradientUnits="userSpaceOnUse"><stop offset="0" stop-color="#e1616a"/><stop offset="1" stop-color="#ff8883"/></linearGradient><linearGradient id="Áåçûìÿííûé_ãðàäèåíò_48-3" x1="167.48" y1="59.66" x2="167.48" y2="24.12" xlink:href="#Áåçûìÿííûé_ãðàäèåíò_48"/><linearGradient id="Áåçûìÿííûé_ãðàäèåíò_59" x1="165.74" y1="45.1" x2="165.74" y2="38.06" gradientUnits="userSpaceOnUse"><stop offset="0" stop-color="#cf6074"/><stop offset="1" stop-color="#f37270"/></linearGradient><linearGradient id="Áåçûìÿííûé_ãðàäèåíò_184" x1="179.78" y1="47.34" x2="179.78" y2="41.21" gradientUnits="userSpaceOnUse"><stop offset="0" stop-color="#cf6074"/><stop offset="1" stop-color="#ff817f"/></linearGradient><linearGradient id="Áåçûìÿííûé_ãðàäèåíò_48-4" x1="180.36" y1="50.9" x2="180.36" y2="37.12" xlink:href="#Áåçûìÿííûé_ãðàäèåíò_48"/><linearGradient id="Áåçûìÿííûé_ãðàäèåíò_292" x1="166.7" y1="79.17" x2="166.7" y2="12.28" gradientUnits="userSpaceOnUse"><stop offset="0" stop-color="#2e33a0"/><stop offset="1" stop-color="#0665a5"/></linearGradient><linearGradient id="Áåçûìÿííûé_ãðàäèåíò_35" x1="184.27" y1="37.05" x2="184.27" y2="21.62" gradientUnits="userSpaceOnUse"><stop offset="0" stop-color="#ffeadb"/><stop offset="0.99" stop-color="#8860c7"/></linearGradient><linearGradient id="Áåçûìÿííûé_ãðàäèåíò_52" x1="163.25" y1="79.17" x2="163.25" y2="12.28" gradientUnits="userSpaceOnUse"><stop offset="0" stop-color="#ccc2db"/><stop offset="0.99" stop-color="#8860c7"/></linearGradient><linearGradient id="Áåçûìÿííûé_ãðàäèåíò_397" x1="167.73" y1="79.16" x2="167.73" y2="76.28" gradientUnits="userSpaceOnUse"><stop offset="0" stop-color="#776d7e"/><stop offset="1" stop-color="#9d68c2"/></linearGradient><linearGradient id="Áåçûìÿííûé_ãðàäèåíò_141" x1="176.16" y1="17.08" x2="176.16" y2="14.95" gradientUnits="userSpaceOnUse"><stop offset="0" stop-color="#1f77d1"/><stop offset="1" stop-color="#0686c9"/></linearGradient><linearGradient id="Áåçûìÿííûé_ãðàäèåíò_141-2" x1="162.56" y1="24.11" x2="162.56" y2="17.8" xlink:href="#Áåçûìÿííûé_ãðàäèåíò_141"/><linearGradient id="Áåçûìÿííûé_ãðàäèåíò_141-3" x1="185.44" y1="27.31" x2="185.44" y2="21.62" xlink:href="#Áåçûìÿííûé_ãðàäèåíò_141"/><linearGradient id="Áåçûìÿííûé_ãðàäèåíò_285" x1="147.77" y1="52.37" x2="140.49" y2="43.44" gradientUnits="userSpaceOnUse"><stop offset="0" stop-color="#ffeadb"/><stop offset="0.99" stop-color="#b060f4"/></linearGradient><linearGradient id="Áåçûìÿííûé_ãðàäèåíò_285-2" x1="148.53" y1="51.22" x2="144.95" y2="46.83" xlink:href="#Áåçûìÿííûé_ãðàäèåíò_285"/><linearGradient id="Áåçûìÿííûé_ãðàäèåíò_141-4" x1="162.14" y1="24.67" x2="174.48" y2="24.67" xlink:href="#Áåçûìÿííûé_ãðàäèåíò_141"/><linearGradient id="Áåçûìÿííûé_ãðàäèåíò_141-5" x1="179.54" y1="61.57" x2="183.28" y2="61.57" xlink:href="#Áåçûìÿííûé_ãðàäèåíò_141"/><linearGradient id="Áåçûìÿííûé_ãðàäèåíò_141-6" x1="174.92" y1="58.79" x2="178.95" y2="58.79" xlink:href="#Áåçûìÿííûé_ãðàäèåíò_141"/><linearGradient id="Áåçûìÿííûé_ãðàäèåíò_89" x1="204.69" y1="68.57" x2="331.18" y2="68.57" gradientUnits="userSpaceOnUse"><stop offset="0" stop-color="#9d68c2"/><stop offset="1" stop-color="#aec2ff"/></linearGradient><linearGradient id="Áåçûìÿííûé_ãðàäèåíò_85" x1="230.42" y1="116.35" x2="230.42" y2="78.2" gradientUnits="userSpaceOnUse"><stop offset="0" stop-color="#ccedff"/><stop offset="1" stop-color="#9d68c2"/></linearGradient><linearGradient id="Áåçûìÿííûé_ãðàäèåíò_85-2" x1="295.47" y1="97.75" x2="295.47" y2="80.94" xlink:href="#Áåçûìÿííûé_ãðàäèåíò_85"/><linearGradient id="Áåçûìÿííûé_ãðàäèåíò_85-3" x1="315.3" y1="97.75" x2="315.3" y2="80.94" xlink:href="#Áåçûìÿííûé_ãðàäèåíò_85"/><linearGradient id="Áåçûìÿííûé_ãðàäèåíò_85-4" x1="275.31" y1="97.75" x2="275.31" y2="80.94" xlink:href="#Áåçûìÿííûé_ãðàäèåíò_85"/><linearGradient id="Áåçûìÿííûé_ãðàäèåíò_65" x1="94.57" y1="56.46" x2="94.57" y2="38.87" gradientUnits="userSpaceOnUse"><stop offset="0" stop-color="#d93de3"/><stop offset="1" stop-color="#ff6dba"/></linearGradient><linearGradient id="Áåçûìÿííûé_ãðàäèåíò_14" x1="105.32" y1="56.46" x2="105.32" y2="38.87" gradientUnits="userSpaceOnUse"><stop offset="0" stop-color="#a242ea"/><stop offset="1" stop-color="#fe117e"/></linearGradient><linearGradient id="Áåçûìÿííûé_ãðàäèåíò_115" x1="91.52" y1="241.77" x2="101.03" y2="166.03" gradientUnits="userSpaceOnUse"><stop offset="0" stop-color="#067eff"/><stop offset="1" stop-color="#3e37a0"/></linearGradient><linearGradient id="Áåçûìÿííûé_ãðàäèåíò_302" x1="313.6" y1="54.54" x2="313.6" y2="48.16" gradientUnits="userSpaceOnUse"><stop offset="0" stop-color="#459fff"/><stop offset="1" stop-color="#a96dff"/></linearGradient><linearGradient id="Áåçûìÿííûé_ãðàäèåíò_302-2" x1="13.55" y1="129.37" x2="13.55" y2="121.42" xlink:href="#Áåçûìÿííûé_ãðàäèåíò_302"/><linearGradient id="Áåçûìÿííûé_ãðàäèåíò_322" x1="322.98" y1="54.54" x2="322.98" y2="48.16" gradientUnits="userSpaceOnUse"><stop offset="0" stop-color="#b31a8f"/><stop offset="1" stop-color="#fe117e"/></linearGradient><linearGradient id="Áåçûìÿííûé_ãðàäèåíò_322-2" x1="117.1" y1="75.56" x2="117.1" y2="71.05" xlink:href="#Áåçûìÿííûé_ãðàäèåíò_322"/><linearGradient id="Áåçûìÿííûé_ãðàäèåíò_25-2" x1="268.32" y1="175.18" x2="268.32" y2="170.67" xlink:href="#Áåçûìÿííûé_ãðàäèåíò_25"/><linearGradient id="Áåçûìÿííûé_ãðàäèåíò_25-3" x1="33.61" y1="197.45" x2="33.61" y2="193.41" xlink:href="#Áåçûìÿííûé_ãðàäèåíò_25"/><linearGradient id="Áåçûìÿííûé_ãðàäèåíò_97" x1="50.54" y1="175.61" x2="50.54" y2="142.28" gradientUnits="userSpaceOnUse"><stop offset="0" stop-color="#d906e3"/><stop offset="1" stop-color="#ff6df9"/></linearGradient><linearGradient id="Áåçûìÿííûé_ãðàäèåíò_97-2" x1="280.73" y1="222.8" x2="280.73" y2="181.1" xlink:href="#Áåçûìÿííûé_ãðàäèåíò_97"/><linearGradient id="Áåçûìÿííûé_ãðàäèåíò_206" x1="229.05" y1="165.69" x2="225.5" y2="135.19" gradientTransform="matrix(0.97, 0.26, -0.26, 0.97, 48.52, -20.06)" gradientUnits="userSpaceOnUse"><stop offset="0" stop-color="#1852a0"/><stop offset="1" stop-color="#067ed3"/></linearGradient><linearGradient id="Áåçûìÿííûé_ãðàäèåíò_206-2" x1="225.61" y1="165.81" x2="225.61" y2="134.55" xlink:href="#Áåçûìÿííûé_ãðàäèåíò_206"/><linearGradient id="Áåçûìÿííûé_ãðàäèåíò_107" x1="184.6" y1="206.91" x2="182.3" y2="187.18" gradientTransform="matrix(0.94, 0.33, -0.52, 1.49, 152.85, -170.85)" gradientUnits="userSpaceOnUse"><stop offset="0" stop-color="#188dc1"/><stop offset="1" stop-color="#06bfe7"/></linearGradient><linearGradient id="Áåçûìÿííûé_ãðàäèåíò_107-2" x1="247.95" y1="36.53" x2="256.04" y2="6.47" gradientTransform="matrix(1, 0, 0, 1, 0, 0)" xlink:href="#Áåçûìÿííûé_ãðàäèåíò_107"/><linearGradient id="Áåçûìÿííûé_ãðàäèåíò_206-3" x1="234.03" y1="33.06" x2="240.07" y2="10.64" gradientTransform="matrix(1, 0, 0, 1, 0, 0)" xlink:href="#Áåçûìÿííûé_ãðàäèåíò_206"/><linearGradient id="Áåçûìÿííûé_ãðàäèåíò_107-3" x1="-84.05" y1="88.31" x2="-78.54" y2="67.81" gradientTransform="matrix(-1, 0, 0, 1, -70.17, 0)" xlink:href="#Áåçûìÿííûé_ãðàäèåíò_107"/><linearGradient id="Áåçûìÿííûé_ãðàäèåíò_206-4" x1="-93.54" y1="85.95" x2="-89.43" y2="70.66" gradientTransform="matrix(-1, 0, 0, 1, -70.17, 0)" xlink:href="#Áåçûìÿííûé_ãðàäèåíò_206"/><linearGradient id="Áåçûìÿííûé_ãðàäèåíò_70-17" x1="156.8" y1="225.67" x2="156.8" y2="223.86" xlink:href="#Áåçûìÿííûé_ãðàäèåíò_70"/></defs><g class="cls-1"><g id="Layer_2" data-name="Layer 2"><g id="Layer_1-2" data-name="Layer 1"><path class="cls-2" d="M59.24,113.69c0-.17.09-.26.25-.25l4.79.14a3.49,3.49,0,0,1,1.21.22,2.07,2.07,0,0,1,.79.53,2,2,0,0,1,.42.81,3.56,3.56,0,0,1,.11,1.06l0,1.31a3.72,3.72,0,0,1-.17,1,1.92,1.92,0,0,1-.47.78,2,2,0,0,1-.82.49,3.76,3.76,0,0,1-1.22.14l-2.58-.08L61,118.38H60.9l0,1.49-1.81-.05Zm1.67,4.52,3.06.1a1,1,0,0,0,.75-.21,1.15,1.15,0,0,0,.24-.8l0-1.07a1.12,1.12,0,0,0-.19-.82,1,1,0,0,0-.73-.24l-2.93-.09a.12.12,0,0,0-.1,0,.12.12,0,0,0,0,.09Z"/><path class="cls-2" d="M69.41,116.43h-.06l-.06,1.91c0,.09,0,.13.12.13l5.39.16,0,1.66-7.07-.21a.24.24,0,0,1-.25-.27l.18-5.87c0-.17.09-.26.26-.25l6.87.21a.23.23,0,0,1,.25.27l0,1.66-1.69.57h-.07l0-.85c0-.07,0-.1-.08-.1l-3.63-.11s-.08,0-.09,0a.32.32,0,0,0,0,.09l0,.8,3,.09,0,1.3-2.51-.08Z"/><path class="cls-2" d="M81.38,116.31h-.07l0-.7a.1.1,0,0,0-.11-.11l-3.37-.1a.29.29,0,0,0-.25.07.32.32,0,0,0-.08.23v.15q0,.2.06.24a.46.46,0,0,0,.23.09l4,.67a2.91,2.91,0,0,1,.64.18,1.21,1.21,0,0,1,.42.31,1,1,0,0,1,.22.45,2.29,2.29,0,0,1,.06.62l0,.51a2.43,2.43,0,0,1-.12.7,1.22,1.22,0,0,1-.33.5,1.42,1.42,0,0,1-.59.29,3.34,3.34,0,0,1-.89.08l-5.68-.17,0-1.66,5.09.15a.4.4,0,0,0,.31-.07.44.44,0,0,0,.08-.29v-.18A.34.34,0,0,0,81,118a.35.35,0,0,0-.22-.1l-3.81-.59a3.85,3.85,0,0,1-.66-.18,1.48,1.48,0,0,1-.45-.3,1.07,1.07,0,0,1-.24-.43,2.29,2.29,0,0,1-.06-.61l0-.45a1.42,1.42,0,0,1,.4-1.06,1.62,1.62,0,0,1,1.24-.35l5.68.17a.25.25,0,0,1,.26.29l0,1.32Z"/><path class="cls-2" d="M83.78,120.57l.2-6.39,1.81,0-.2,6.39Z"/><path class="cls-2" d="M92.3,118.09c0-.1,0-.2,0-.3s0-.19,0-.27v-.08l1.79.06-.1,3.13c0,.16-.08.24-.22.24l-4.81-.15a3.5,3.5,0,0,1-1.21-.21,2,2,0,0,1-.79-.54,1.85,1.85,0,0,1-.42-.81,3.49,3.49,0,0,1-.11-1l0-1.32a3.71,3.71,0,0,1,.17-1,2,2,0,0,1,.47-.79,2.07,2.07,0,0,1,.82-.48,3.74,3.74,0,0,1,1.22-.15l4.78.15a.23.23,0,0,1,.25.27l0,1.38-1.7.56h-.07l0-.61c0-.06,0-.09-.07-.09l-3.06-.1a1.89,1.89,0,0,0-.44,0,.62.62,0,0,0-.3.16.67.67,0,0,0-.18.31,2,2,0,0,0-.07.48l0,1.13a1.18,1.18,0,0,0,.19.81,1,1,0,0,0,.74.25l3,.09c.07,0,.1,0,.1-.1Z"/><path class="cls-2" d="M97.89,114.6a.45.45,0,0,1,.28.07.46.46,0,0,1,.15.2l2.29,4.66a.17.17,0,0,0,.16.11h.09c.1,0,.15-.05.15-.14l.15-4.81,1.64,0-.19,6.14a.22.22,0,0,1-.25.24l-2.6-.08a.53.53,0,0,1-.28-.06.46.46,0,0,1-.16-.21L97,116.13a.18.18,0,0,0-.17-.11H96.7a.13.13,0,0,0-.15.14l-.14,4.8-1.65,0,.19-6.13c0-.17.09-.26.25-.25Z"/><circle class="cls-3" cx="145.57" cy="113.29" r="110.75" transform="translate(-37.47 136.11) rotate(-45)"/><path class="cls-4" d="M64.16,106.2a17,17,0,0,0-7.54-6.62l-1.68.78,3.78,6.87a7.34,7.34,0,0,1-2.31,4.08h0a7.34,7.34,0,0,1-4.62-.85L49,103.15l-1.68.79a17,17,0,0,0,.23,10s.72,1.65.84,1.79c.67.78,2.4,1.68,5.76,1.47l11.58,22.08a6.06,6.06,0,1,0,6.25-2.92l-9.5-23C64.69,111,65.17,109.08,65,108,65,107.77,64.16,106.2,64.16,106.2Zm9.52,38.09-3.07,1.43-2.77-1.94.29-3.37L71.2,139,74,140.91Z"/><path class="cls-5" d="M65,108a17,17,0,0,0-7.54-6.62l-1.68.78L59.56,109a7.41,7.41,0,0,1-2.31,4.09h0a7.34,7.34,0,0,1-4.62-.85L49.78,105l-1.67.78a17,17,0,0,0,.23,10s2.62,3.51,6.6,3.27l11.58,22.08a6.06,6.06,0,1,0,6.25-2.92l-9.5-23C66,112.26,65,108,65,108Zm9.52,38.08-3.07,1.44-2.77-1.94.29-3.37L72,140.77l2.77,1.94Z"/><rect class="cls-6" x="47.6" y="103.45" width="1.85" height="1.98" transform="translate(-39.65 30.36) rotate(-25.04)"/><rect class="cls-6" x="55.27" y="99.88" width="1.85" height="1.98" transform="translate(-37.42 33.27) rotate(-25.04)"/><rect class="cls-6" x="70.87" y="144.91" width="3.38" height="1.98" transform="translate(-54.94 44.43) rotate(-25.04)"/><path class="cls-7" d="M57.42,120.67l9.35,18a4.58,4.58,0,0,0,3.77-1.77l-7.61-18.78A7.15,7.15,0,0,0,57.42,120.67ZM69.82,137a5.38,5.38,0,0,1-1.21.79,4.92,4.92,0,0,1-1.29.39L58,120.6a9.25,9.25,0,0,1,2.25-1.48,7.83,7.83,0,0,1,2.31-.68Z"/><path class="cls-6" d="M69.82,137l.72-.15a4,4,0,0,1-3.77,1.77l.55-.44A5.14,5.14,0,0,0,69.82,137Z"/><path class="cls-8" d="M57.42,120.67l.54-.07a8.66,8.66,0,0,1,4.56-2.16l.41-.35a7,7,0,0,0-5.51,2.58Z"/><path class="cls-9" d="M54.94,119a20.62,20.62,0,0,0,8.33-3.88l1.21,2.94s-1.38-1.36-4.4-.13c-3.54,1.45-3.35,4.29-3.35,4.29Z"/><path class="cls-10" d="M64.48,118.09a3.68,3.68,0,0,0-1.85-.63l9.05,21.85,1.09-1.12Z"/><path class="cls-11" d="M64.48,118.09a3.61,3.61,0,0,0,1.78,4.31Z"/><path class="cls-12" d="M204.84,334.2c-4.4-.09-2.69-3.67-8.25-3-5.2.63-6-1-10,0-6.83-27.51-24.32-89.23-31.15-116.75-2-1.18-5.86.27-5.86.27L137.3,259.37l-16.91,61.27-18,7.51c-.23-3.84.21-40.35,4.5-73.57a276.44,276.44,0,0,1,13.2-54h0a3.36,3.36,0,0,1-.4-1.71,4.16,4.16,0,0,1,1.15-1.33c.83-.75,1.81-1.51,1.81-1.51l57.23-.36s.58.3,1.32.74h0c1.25.76,2.94,1.93,2.94,2.78a3.86,3.86,0,0,1-.58,2.12l0,0a273.72,273.72,0,0,1,15.33,48C202.47,265.82,204.16,321.4,204.84,334.2Z"/><path class="cls-13" d="M135.05,239.32c-4.11,17.81-22,86.29-28.93,84.7s-.14-72.65,4-90.45,13-30.95,19.92-29.36S139.16,221.52,135.05,239.32Z"/><path class="cls-14" d="M196.73,241.18c6.25,22.3,8.67,85.11,1.86,87s-20.28-57.81-26.52-80.11-5.8-41.92,1-43.82S190.48,218.89,196.73,241.18Z"/><path class="cls-15" d="M119.26,313.89l-1.5,3.75c3.9-23,29-100.6,29.13-100.79l0-.06,2.53-2.2.23.27L147.2,217C146.75,217.91,123.08,291.36,119.26,313.89Z"/><path class="cls-16" d="M188.59,329.2c-3.83-22.54-30.59-111.49-31-112.34l-2.24-2,.24-.27,2.3,2.08c.1.19,27.82,91.53,31.73,114.53Z"/><path class="cls-17" d="M184.12,199.15a3.86,3.86,0,0,1-.58,2.12l0,0c-11.91,2.7-21,13.82-21,13.82C169,227.58,194.59,331.2,194.59,331.2h-8c-3.52-19.52-31.15-116.75-31.15-116.75-2-1.18-5.86.27-5.86.27L120.39,320.64l-11.64,4.88c2.84-18.7,31.85-107.69,31.85-107.69-8.26-9.61-20.53-17.28-20.53-17.28h0l-1.45-.91,1-.8c5.31,5.1,22.43,11.75,23,12L120.81,197.5c.83-.75,1.81-1.51,1.81-1.51l57.23-.36s.58.3,1.32.74L165.54,205Z"/><polygon class="cls-18" points="155.44 214.45 162.12 210.12 160.54 214.45 159.37 227.5 155.44 214.45"/><polygon class="cls-19" points="149.58 214.72 142.62 210.78 127.72 204.08 146.69 216.61 147.82 221.11 149.58 214.72"/><path class="cls-20" d="M168.72,80.51c.05.31.08.47.08.47a41.77,41.77,0,0,1-1.18,4,33,33,0,0,1-4.45,8.66A16.62,16.62,0,0,1,161.22,96c-10.42-3.27-15.56-13.46-17.53-18.54l0-.07c-.38-1-.63-1.73-.78-2.23h0c-.13-.4-.18-.62-.18-.62s.08-.18.13-.27l0,0,.5-1.07a50.73,50.73,0,0,0,2.85-8c.51-1.88.78-3.32.91-4.08.07-.4.09-.61.09-.61L152.06,63l16.74,8.86a26.68,26.68,0,0,0-.35,4.25c0,.89,0,1.69.06,2.37s.14,1.48.2,1.91h0S168.72,80.47,168.72,80.51Z"/><path class="cls-21" d="M164.08,97.08a14.29,14.29,0,0,1-3.46,2.52.25.25,0,0,1-.08.05l-.1-.05h0c-.37-.22-1.61-1-3.28-2.24-4.37-3.3-11.67-9.95-13.76-18.93a0,0,0,0,1,0,0,20.75,20.75,0,0,1-.5-3.28h0a8.69,8.69,0,0,1,0-.89,46.19,46.19,0,0,0,4,7.09c3,4.33,7.4,9,12.7,9.08,4.58,0,6.93-3.11,8.13-6a17,17,0,0,0,1-3.29,0,0,0,0,0,0,0c0-.26.08-.49.12-.68h0c0-.1,0-.18,0-.26,0-.32.05-.51.05-.51S170.56,90.6,164.08,97.08Z"/><path class="cls-22" d="M164.08,97.08a14.29,14.29,0,0,1-3.46,2.52h-.19c-.37-.22-1.61-1-3.28-2.24-4.37-3.3-11.67-9.95-13.76-18.93a0,0,0,0,1,0,0,20.75,20.75,0,0,1-.5-3.28h0a8.69,8.69,0,0,1,0-.89,46.19,46.19,0,0,0,4,7.09s2.89,7.93,9.13,11.86c3.13,2,5.5,1.68,7.25.52A10.77,10.77,0,0,0,166.7,89a11,11,0,0,0,.92-4v-.64a17,17,0,0,0,1-3.29,0,0,0,0,0,0,0c0-.26.08-.49.12-.68h0c0-.1,0-.18,0-.26,0-.32.05-.51.05-.51S170.56,90.6,164.08,97.08Z"/><path class="cls-23" d="M204.2,161.87a.33.33,0,0,0-.11.06c-.59.07-2.41-.33-4.8-2.4h0l0,0s0,0,0,0a30.61,30.61,0,0,1-6.8-9.45c-4.78-9.57-6.16-16-6.38-17.07l0-.17-2.79,4.43c-1.89,5.69-5.48,29.25-5.41,30.27s3.17,6,3.11,6.56a0,0,0,0,1,0,0c-.08.61-1.48,2-1.88,3.43-.27,1,1.63,4.07,3,6.38h0a9.2,9.2,0,0,1,1.23,2.56c0,1.08-3.39,6.36-3.39,6.36v2.84l0,.05-.15.15-.13.1c-1.29,1-6.74,4.34-23.77,5.25-20.18,1.08-33.63-5.41-33.63-5.41l1-2.78s-1-.81-1-1.22.74-1.35.74-1.35-2-1.08-2-2.44,4.06-5.54,3.92-9.14-3.25-6.76-3.65-8.79,5.28-7,5.28-7c-4.88-15.43-5.83-36.14-5.83-36.14l-.94-1.09s-5.82,13.27-11.1,19.76c-.63.77-1.29,1.54-2,2.27a58.17,58.17,0,0,1-4.54,4.4c-3.66,3.19-7,5.28-7.83,5.11-1.36-.27-6.77-11-6.52-21.93.11-5.21,3.26-11,6.52-15.73.35-.5.7-1,1.06-1.47a73.68,73.68,0,0,1,5.6-6.75c.42-.45.65-.68.65-.68s-.74-2.4-1.25-4.48l0-.15a.19.19,0,0,0,0-.07.18.18,0,0,1,0,0,6.34,6.34,0,0,1-.32-2.65c.45-.73,3.07-1.54,3.52-2.08s2.35-9.66,3.79-10.65,3.82-1.64,12-4.84l1.23-.48c9.11-3.61,18-8,18-8l3.43-4.21h1.53l-.5,1.07,0,0c.24,1.09.52,2.13.83,3.13l0,.07a31.93,31.93,0,0,0,16.85,19.67A21,21,0,0,0,168.8,81V79.62l1.58.47,1.08,2.58s1.83,2.84,9.07,6a43,43,0,0,1,4,2c6.63,3.77,14,9.59,14.57,10.83a3.2,3.2,0,0,1,.19.61h0c.78,3,2.38,14.51,3.87,18.59a9.38,9.38,0,0,0,3.47,4.69h0a5.37,5.37,0,0,0,1.39.72c.11.63.22,1.25.32,1.86C211.44,147.64,205.53,160.94,204.2,161.87Z"/><path class="cls-24" d="M126.45,124.89l-5.89,2-.94-1.09s-5.82,13.27-11.1,19.76c-.63.77-1.29,1.54-2,2.27a58.17,58.17,0,0,1-4.54,4.4l-4.49-19.34-2.28-14.68a73.68,73.68,0,0,1,5.6-6.75c.42-.45.65-.68.65-.68s-.74-2.4-1.25-4.48l0-.15a.19.19,0,0,0,0-.07.18.18,0,0,1,0,0,6.34,6.34,0,0,1-.32-2.65c.45-.73,3.07-1.54,3.52-2.08s2.35-9.66,3.79-10.65c0,0-.94,8.75,4.07,19.86l2.43,3.42,7.13,5.73A22.59,22.59,0,0,0,126.45,124.89Z"/><path class="cls-25" d="M109.42,140.72c-1.27,9.38-15.25,16.6-15.25,16.6-3.11,0-6.59-5.41-9.75-12.09s-3.35-25.87-3.51-27.06-1.93-3.55-2-4.57,2.84-3.11,2.84-3.11l0,0,0,0c-.31-.66-2-4.37-1.91-5S83.2,103,83.2,103l.21,3.65s7.7-1.46,10.31-7.43l.45-1.82,1.29.85v7.85s.26,1.23.67,1.23,3.41-1.5,4-1.3,1.25,4.41,2.1,4.95,3.07,2.1,3.4,2.84a13.33,13.33,0,0,1,.18,3,29.61,29.61,0,0,0,.3,5C106.62,123.82,110.68,131.33,109.42,140.72Z"/><path class="cls-26" d="M237.3,132.68c-.63,1-3.79,3.08-4.61,3.89s0,3.48,0,3.48a109.48,109.48,0,0,1-28.49,21.82.33.33,0,0,0-.11.06c-8.33-5.61-7.62-14.83-4.85-22.6a58.75,58.75,0,0,1,7.37-13.85h0a16.94,16.94,0,0,1,4.23-1.17,2.51,2.51,0,0,1,1.57.48c1,.63,1.87,1.62,2.7,1.21,1.22-.62,3.95-7.07,5.8-7.25,1.29-.12,3.09,1.2,4.28,2,.52.33.93.55,1.13.49.68-.18,3-2.94,3.16-3s1.23.7,1.23.7l-.73.91a25,25,0,0,0,4.83,10.87L237.3,127S237.93,131.69,237.3,132.68Z"/><path class="cls-27" d="M168.76,80.23c0,.09,0,.19,0,.28a3.9,3.9,0,0,1-.13.57,0,0,0,0,1,0,0c-.85,3.15-4.29,6.38-8.62,4.83-4.74-1.7-13.76-20.79-13.76-20.79l.91-4.08,21.4,17.43.24,1.65Z"/><path class="cls-28" d="M97.51,76.73s-1.31-7.21-.72-12.54a57.9,57.9,0,0,0-.16-11.37,2.91,2.91,0,0,0-2.24,0c-.94.54-3.15,6-2.16,10.47s.22,15,.22,15H91l-3.25-4.46-1.58-.45s-9.09,8.57-9,13.67l1.19,4.53,11.2-.38,7.31-8.35Z"/><path class="cls-29" d="M86.14,73.4A57.62,57.62,0,0,0,87.65,84a2.54,2.54,0,0,1-2.55,2.14l-.58-.65s-.4,2.27-2.47,2.44l-2-2,.51,1.62A2.77,2.77,0,0,1,78,89.2s-3.12-2.44-3.32-5.62L77.79,81V79l3.65-2.57L81.51,75A8.59,8.59,0,0,1,86.14,73.4Z"/><path class="cls-30" d="M96.92,62.66a5.09,5.09,0,0,1-1.33,1.94,11.43,11.43,0,0,1-3,1l-.11,12.76H91l-3.25-4.46a11.94,11.94,0,0,1,1.75,4.46L88.18,79l-1.12-3.83-.53,2.75.53,3.43a9,9,0,0,1,5.41-1.73l.53,1s-6.31,5.23-7.77,8.31c0,0,3.12-4,10.22-8.33l.68-2.1.9-5S96.18,66.18,96.92,62.66Z"/><path class="cls-31" d="M102.2,84.9c-.58,1.76-6.72,9.07-7.4,10.65a21.07,21.07,0,0,0-1.08,3.65c-3,6.53-10.31,7.43-10.31,7.43l-.34-5.89s-3.92-2.26-4.59-3.49v0L78.4,97a49.33,49.33,0,0,1,0-5.42l6.86-2.78c3-3.85,10.23-8.32,10.23-8.32l.33-2c-5.2-2.56-4.33-10.3-3.45-11.25a3.86,3.86,0,0,1,2.5-.94s1.9,6.22,3.12,9.14S102.79,83.14,102.2,84.9Z"/><path class="cls-32" d="M81.51,75s.77,7.11,3,10.49a16.58,16.58,0,0,1-3.08-9Z"/><path class="cls-32" d="M77.79,79s.74,5.72,4.26,8.9c0,0-3.11-1.56-4.26-6.9Z"/><path class="cls-33" d="M95.75,94s-7.74,7.51-12.68,6.7l.34,5.89a13.06,13.06,0,0,0,10.76-9.26A22.52,22.52,0,0,1,95.75,94Z"/><path class="cls-34" d="M259.39,104.26s-7.11,13-15.44,17h-2.84l-6.57,9.95s-4.24-2.67-4.55-11.42a8.05,8.05,0,0,0,1.85-3.3,13.05,13.05,0,0,1-3-3.19c-.63-1.36-.86-5.42-1.31-7.09s-4.29-5.14-5.14-5.59-4.74-.68-4.74-.68-.54-1.4,0-2.08,6.59-3,9.88-.77a14.58,14.58,0,0,0,.59,2.62c.36.91,3.25,4.11,3.7,4.11s2.39-1.63,3.25-2.89a128.82,128.82,0,0,0,6.24-13.8l0-.1a1,1,0,0,0,0-.14.47.47,0,0,0,0-.09s0,0,0,0c.81-2.75,5.55-8,8.08-9.47a1.49,1.49,0,0,1,1.66,1.08A59.34,59.34,0,0,1,247,87.57c-.36.58-.74,1.25-1.14,2h0c-1.81,3.32-3.84,7.68-4.14,8.31l0,.08,1.13.58,3.05-2.89,3.13-3,7.18,7.58-.71.9L253.26,104l1.13.21,2.65-2.92Z"/><path class="cls-35" d="M257.72,107l-2.27,3.34S243,100.74,240.27,99.93s-3.7-.28-3.7-.28l-2.79,3.57s5.14,4.56,5.59,10.69c0,0-1.71-7.75-7.53-10.1.45,0,2.39-1.63,3.25-2.89a128.82,128.82,0,0,0,6.24-13.8,3.51,3.51,0,0,0,.12,2.43c.61,1.14,4.23.07,4.44,0h0l-4.15,8.31,0,.08,1.13.58,3.05-2.89-1.53,3.55,11.13,2L253.26,104l1.13.21Z"/><path class="cls-36" d="M249,92.66s2.16-.31,3.56,2.48l-.31.91s2.11.41,4.15,3.83a11.59,11.59,0,0,1-6.27,4.79s-2.08-.59-2.44-2.35l.41-1.13-1.63,1.22s-1.94.59-2.8-2.3Z"/><path class="cls-37" d="M260,103.36a3.35,3.35,0,0,0-1.76-3.43L254,104.67a2.22,2.22,0,0,0,2,1.85S258.91,105.52,260,103.36Z"/><path class="cls-38" d="M228.86,113.29a31.77,31.77,0,0,0,12.25,8L238,126l-6.55-8.32.42-1.2S229.22,114.51,228.86,113.29Z"/><path class="cls-32" d="M252.28,96.05a24.82,24.82,0,0,1-4.15,5.14l-.41,1.13s4-2.72,5.51-5.86A2.46,2.46,0,0,0,252.28,96.05Z"/><path class="cls-39" d="M237.3,132.68c-.63,1-3.79,3.08-4.61,3.89s0,3.48,0,3.48a109.48,109.48,0,0,1-28.49,21.82.33.33,0,0,0-.11.06c-1.09.13-6.37-1.36-11.65-11.91-4.78-9.57-6.16-16-6.38-17.07l0-.17,1.17-1.58,1.73-19.49,1.21,3.92a91.85,91.85,0,0,0,8.94-14.07l.19.61h0c.78,3,2.38,14.51,3.87,18.59a9.38,9.38,0,0,0,3.47,4.69h0c-4.24,3.87-6.34,9.43-7.37,13.85a38.7,38.7,0,0,0-1,7.16,47.9,47.9,0,0,1,4.88-12.11,26.22,26.22,0,0,1,5.23-6.33,42.18,42.18,0,0,1,4.09-3.27c1,.63,1.87,1.62,2.7,1.21-5.57,8.36-5.44,24.93-.2,21.77s6.43-9.86,6.43-9.86c-1.24-8.17-.87-17.38.12-19.13,1.21,0,4.66,2.47,4.86,2.41a28.27,28.27,0,0,0,4.2,16l3-4.61a28.6,28.6,0,0,1-4-14.43c.18-.08,1.23.7,1.23.7l-.73.91a25,25,0,0,0,4.83,10.87L237.3,127S237.93,131.69,237.3,132.68Z"/><path class="cls-40" d="M179.85,192.79v2.84l0,.05-.15.15-.13.1c-1.29,1-6.74,4.34-23.77,5.25-20.18,1.08-33.63-5.41-33.63-5.41l1-2.78s-1-.81-1-1.22.74-1.35.74-1.35-2-1.08-2-2.44,3.31-4.76,3.85-8.08a4.77,4.77,0,0,0,.07-1.06c-.13-3.57-3.22-6.73-3.65-8.76v0c-.41-2,5.28-7,5.28-7-4.88-15.43-5.83-36.14-5.83-36.14l-.94-1.09s-5.82,13.27-11.1,19.76-13,12.06-14.35,11.78c-3.11,0-6.59-5.41-9.75-12.09s-3.35-25.87-3.51-27.06-1.93-3.55-2-4.57c3.39,5.82,8.78,4.11,8.78,4.11-3.91.08-5.94-7.22-5.94-7.22l0,0,0,0-1.91-5c.22.24,4.68,5.24,9,2.16s6.7-9.28,6.7-9.28v7.85s.26,1.23.67,1.23a95.1,95.1,0,0,1-2,12.35c-2,9.38-4.76,18.44-4.76,18.44s7.46-4.06,10.08-14.35a43.08,43.08,0,0,0,1.34-12.31,31.72,31.72,0,0,0-.6-5.16l0-.15a.19.19,0,0,0,0-.07.1.1,0,0,0,0,0l.73,1.53,1.37,3.4c1.59,13.2-1.7,33.1-1.7,33.1,4.79-6,5.78-19.14,5.58-22.34-.1-1.53-.22-3.41-.3-5s-.18-3-.18-3l9.8,5.84-1.81-5.73,7.13,5.73s6.41,7.72,13,8.62,30.77.37,30.77.37-21,1.35-27.16,3.15-7.31,3.88-7.31,3.88c4.43,22.57,29,30.18,29.75,30.41-22.27-3.34-32.64-22.28-32.64-22.28s-.36,10.65,1.35,14.71,11.82,14,24.82,16.06a30.1,30.1,0,0,0,3.24.32c11,.52,20-5.08,21-5.68l.08,0,0,0c-.35.54-4.85,6.86-23,7.55-1.11,0-2.18,0-3.22,0h0A35.08,35.08,0,0,1,126,164.81s-6.22,3.34-2.25,8.3l.13.16c1.17,1.35,3.75,3,6.8,4.7l.25.14c3.69,2,8,4.14,11.35,5.88a.06.06,0,0,1,0,0,41.54,41.54,0,0,1,4.66,2.66,0,0,0,0,1,0,0c.94.69,1.14,1.13.21,1.24-4.69.54-22.47-3.34-23.19-2.26s.88,3.88.88,3.88c16.32,8.09,51.23,4.1,52.33,4-29.22,7.48-53.12-2-53.12-2l.79,2.8a104.67,104.67,0,0,0,28.36,4.88c15.34.35,24.91-3.57,24.91-3.57Z"/><path class="cls-41" d="M167.9,128.53s11.62.64,19.3,2.67l-4,6A52.67,52.67,0,0,0,167.9,128.53Z"/><path class="cls-42" d="M178.76,160.57s-7.25,6.05-14.38,8.85a48.26,48.26,0,0,1-14,3.06s4.1,1.22,14.19-.4S178.11,165,178.11,165Z"/><path class="cls-43" d="M182,183.87h0c-13.41,3.47-30.45-1.5-30.3-2.11s4.66.27,15.15-1.83c10.17-2,13.85-5.65,14.07-5.87-.08.61-1.48,2-1.88,3.43C178.78,178.47,180.68,181.56,182,183.87Z"/><path class="cls-44" d="M145.57,130.35c-11.46,1.17-14.55,4.36-14.55,4.36-3.22.41-10.46-7.84-10.46-7.84l-.94-1.09s-5.82,13.27-11.1,19.76c-.63.77-1.29,1.54-2,2.27l.75-1.68s1.23-.59,1.59-7-2.71-16.06-2.73-17.37-.48-7.92-.48-7.92l9.8,5.84-1.81-5.73,7.13,5.73s2.8,4.21,9.85,7.71A33.26,33.26,0,0,0,145.57,130.35Z"/><path class="cls-45" d="M119.62,125.78l6.83-.89a51.3,51.3,0,0,0,8.2,4l-4.56,6.73s1.81,9.6,7,15c0,0-13.8-7.66-15.74-14.11Z"/><path class="cls-46" d="M79.76,105.35l1.95,5.14s2,6.93,5.94,7.22,7.81-11.63,7.81-11.63V98.23s-4.2,9-8.74,10A6.71,6.71,0,0,1,79.76,105.35Z"/><path class="cls-47" d="M103.37,101.28s3.52,7,7.86,9.21c0,0-5.16-12.5-4.07-19.86C107.16,90.63,105.27,91.81,103.37,101.28Z"/><path class="cls-48" d="M188.93,111.71l1.21,3.92,1.23,32.18A77.54,77.54,0,0,1,186.06,133l1.14-1.75S189.11,119.07,188.93,111.71Z"/><path class="cls-49" d="M226.33,121.18s-.69,15.81,6,17.18l.33,1.69S224,139.73,226.33,121.18Z"/><path class="cls-50" d="M215.12,126s-.26.57-2.7-1.21c0,0-8.45,6-11.71,14.43,0,0,5.21-7.76,8-8.6s3.44,2.26,3.44,2.26A23.48,23.48,0,0,1,215.12,126Z"/><path class="cls-51" d="M78.87,113.6s3.25,6,9.34,4.11c0,0-3.65,2.46-7.3.46C80.91,118.17,78.64,114.28,78.87,113.6Z"/><path class="cls-52" d="M100.17,106s4.47,16.72-7.2,29.28a19.39,19.39,0,0,0,9.3-12.89A27.76,27.76,0,0,0,100.17,106Z"/><path class="cls-53" d="M180.28,92.65s-.5,7.55-4.12,13-10.79,9.07-10.79,9.07,9-3.31,13.13-8S180.28,92.65,180.28,92.65Z"/><path class="cls-54" d="M134.24,81.3a47.72,47.72,0,0,0,2,12.74c2,6.43,19.65,17.66,19.65,17.66s-18.16-7.54-21.68-14.33S134.24,81.3,134.24,81.3Z"/><path class="cls-55" d="M134,111.35v10.27s23.66-.19,50.18,1.57l.61-9.25A463.26,463.26,0,0,0,134,111.35Z"/><path class="cls-56" d="M138.42,113.69c0-.17.09-.26.25-.25l4.79.14a3.49,3.49,0,0,1,1.21.22,2.07,2.07,0,0,1,.79.53,2,2,0,0,1,.42.81,3.56,3.56,0,0,1,.11,1.06l0,1.31a3.72,3.72,0,0,1-.17,1,1.92,1.92,0,0,1-.47.78,2,2,0,0,1-.82.49,3.76,3.76,0,0,1-1.22.14l-2.58-.08-.53-1.51h-.07l-.05,1.49-1.81-.05Zm1.67,4.52,3.06.1a1,1,0,0,0,.75-.21,1.15,1.15,0,0,0,.24-.8l0-1.07a1.12,1.12,0,0,0-.19-.82,1,1,0,0,0-.73-.24l-2.93-.09a.12.12,0,0,0-.1,0,.12.12,0,0,0,0,.09Z"/><path class="cls-56" d="M148.59,116.43h-.06l-.06,1.91c0,.09,0,.13.12.13l5.39.16,0,1.66-7.07-.21a.24.24,0,0,1-.25-.27l.18-5.87c0-.17.09-.26.26-.25l6.87.21a.23.23,0,0,1,.25.27l0,1.66-1.69.57h-.07l0-.85c0-.07,0-.1-.08-.1l-3.63-.11s-.08,0-.09,0a.15.15,0,0,0,0,.09l0,.8,3,.09,0,1.3-2.51-.08Z"/><path class="cls-56" d="M160.56,116.31h-.07l0-.7a.1.1,0,0,0-.11-.11l-3.37-.1a.29.29,0,0,0-.25.07.32.32,0,0,0-.08.23v.15q0,.2.06.24a.46.46,0,0,0,.23.09l3.95.67a2.91,2.91,0,0,1,.64.18,1.21,1.21,0,0,1,.42.31,1,1,0,0,1,.22.45,2.29,2.29,0,0,1,.06.62l0,.51a2.43,2.43,0,0,1-.12.7,1.22,1.22,0,0,1-.33.5,1.42,1.42,0,0,1-.59.29,3.34,3.34,0,0,1-.89.08l-5.68-.17,0-1.66,5.09.15a.4.4,0,0,0,.31-.07.44.44,0,0,0,.08-.29v-.18a.34.34,0,0,0-.05-.23.35.35,0,0,0-.22-.1l-3.81-.59a3.85,3.85,0,0,1-.66-.18,1.48,1.48,0,0,1-.45-.3,1.07,1.07,0,0,1-.24-.43,2.8,2.8,0,0,1-.06-.61l0-.45a1.42,1.42,0,0,1,.4-1.06,1.62,1.62,0,0,1,1.24-.35l5.68.17a.25.25,0,0,1,.26.29l0,1.32Z"/><path class="cls-56" d="M163,120.57l.19-6.39,1.81,0-.2,6.39Z"/><path class="cls-56" d="M171.48,118.09c0-.1,0-.2,0-.3s0-.19,0-.27v-.08l1.79.06-.1,3.13c0,.16-.08.24-.22.24l-4.81-.15a3.5,3.5,0,0,1-1.21-.21,2,2,0,0,1-.79-.54,1.85,1.85,0,0,1-.42-.81,3.49,3.49,0,0,1-.11-1l0-1.32a3.71,3.71,0,0,1,.17-1,2,2,0,0,1,.47-.79,2.07,2.07,0,0,1,.82-.48,3.74,3.74,0,0,1,1.22-.15l4.78.15a.23.23,0,0,1,.25.27l0,1.38-1.7.56h-.07l0-.61c0-.06,0-.09-.07-.09l-3.06-.1a1.89,1.89,0,0,0-.44,0,.62.62,0,0,0-.3.16.67.67,0,0,0-.18.31,2,2,0,0,0-.07.48l0,1.13a1.18,1.18,0,0,0,.19.81,1,1,0,0,0,.74.25l3,.09c.07,0,.1,0,.1-.1Z"/><path class="cls-56" d="M177.07,114.6a.45.45,0,0,1,.28.07.46.46,0,0,1,.15.2l2.29,4.66a.17.17,0,0,0,.16.11h.1a.13.13,0,0,0,.14-.14l.15-4.81,1.64,0-.19,6.14a.22.22,0,0,1-.25.24l-2.6-.08a.49.49,0,0,1-.27-.06.41.41,0,0,1-.17-.21l-2.37-4.65A.17.17,0,0,0,176,116h-.09a.13.13,0,0,0-.15.14l-.14,4.8-1.64,0,.18-6.13c0-.17.09-.26.25-.25Z"/><path class="cls-57" d="M171.46,82.67a29.13,29.13,0,0,1-4.74,14.39,17.21,17.21,0,0,1-6.18,5.75,37.32,37.32,0,0,1-8.41-5.06,43,43,0,0,1-13.72-20.36,47.36,47.36,0,0,0,15.4,20.22,30.86,30.86,0,0,0,6.73,4V98.23a20.12,20.12,0,0,1-2.22-1c-8.43-4.25-12.86-13.11-14.93-18.84a0,0,0,0,1,0,0,39.37,39.37,0,0,1-1.56-5.28h1.53l-.5,1.07,0,0c.24,1.09.52,2.13.83,3.13l0,.07a31.93,31.93,0,0,0,16.85,19.67A21,21,0,0,0,168.8,81V79.62l1.58.47Z"/><path class="cls-58" d="M221.47,118.77s-2.29,7.49-.12,19.13c0,0,1.08-14.76,1.89-16s3.09-.68,3.09-.68S222.75,119.21,221.47,118.77Z"/><path class="cls-59" d="M199.24,159.47a30.61,30.61,0,0,1-6.8-9.45c-4.78-9.57-6.16-16-6.38-17.07l1.14-1.75,1.52-14.72,1.42-.85a60.32,60.32,0,0,0,8.94-14.07,3.2,3.2,0,0,1,.19.61h0c.78,3,2.38,14.51,3.87,18.59a9.38,9.38,0,0,0,3.47,4.69s-8.79,13-9.22,22.35C197,156.29,198.89,159.05,199.24,159.47Z"/><path class="cls-60" d="M147,186.68s-15.85-2.6-22.33-6.77h0a4.77,4.77,0,0,0,.07-1.06c-.13-3.57-3.22-6.73-3.65-8.76.08.19.54,1.26,2.79,3.19a48,48,0,0,0,6.8,4.7l.25.14c4.57,2.7,8.51,4.53,11.35,5.88a.06.06,0,0,1,0,0c2.56,1.2,4.22,2,4.66,2.66A0,0,0,0,1,147,186.68Z"/><path class="cls-61" d="M180.93,174.06c-.08.61-1.48,2-1.88,3.43,0,0-5.82,6.16-27.34,4.27.14-.61,4.66.27,15.15-1.83C177,177.89,180.71,174.28,180.93,174.06Z"/><path class="cls-62" d="M184.51,90.73l-13.76,4.46-4,1.87h-6.18l-2.22.18-1.17.09-3.34.26-1.68.14-16.5-6-2.95-1.06-13.57-4.92,1.23-.48c9.11-3.61,18-8,18-8l3.43-4.21h1.53a50.73,50.73,0,0,0,2.85-8l.91-4.08c.07-.4.09-.61.09-.61L152.06,63l16.39,13.11c0,.89,0,1.69.06,2.37l.24,1.65c0-.32.05-.51.05-.51l1.58.47,1.08,2.58s1.83,2.84,9.07,6A43,43,0,0,1,184.51,90.73Z"/><path class="cls-63" d="M174,78.18a22.41,22.41,0,0,1-13.49-2c-7.08-3.43-13-13.54-13.4-16.06s2.71-9.11,2.71-14.26-2.52-14,1.71-18.77,23.74-5.5,30.06.63c0,0,2,4.92,2,7.7a20.07,20.07,0,0,1-.3,2.79c-.06.42-.14.87-.21,1.34-.56,3.36-1.34,7.47-1,9.27a8.85,8.85,0,0,0,.57,1.76h0c.77,1.8,1.93,3.24,2.14,4.8C185.07,57.42,182.34,71.86,174,78.18Z"/><path class="cls-64" d="M149.8,44.42S148.05,40,143.65,40c0,0-2.58,1-3,3a83.14,83.14,0,0,0,2,10.42c1.08,3.32,5.05,2.84,5.05,2.84A16.84,16.84,0,0,0,149.8,44.42Z"/><path class="cls-65" d="M166.7,58.89a4.06,4.06,0,0,1,2.1.36c.63.47,2.93,2.71,5.84,3.32s4.87-1.87,5.49-2,1.3.75,1.3.75a2.45,2.45,0,0,0-1.78-1.47s-.62,2.33-4.84,1.53-6-2.67-6-2.67l-.21-.39A11.44,11.44,0,0,0,166.7,58.89Z"/><path class="cls-66" d="M160.48,37l.06-.45s4.2-7.38,12.53-7.58,10.21,5,10.21,5l1.54-2.34-3.52-7.14-24.46-.41-6,4.81-.75,11.76,2.64,15.53,6.45,3.44L161.05,58c-.68-5.2-4.54-9.95-4.54-9.95l2.82-2s7.24,3.51,11.42,2.46c0,0,3.15-9.19,3-16C173.72,32.6,163,34.18,160.48,37Z"/><path class="cls-67" d="M160.11,37.58s.4-2.66,4.89-3.72c5-1.19,9.07-2.19,9.07-2.19s-.89,2.92-2.56,4a42.52,42.52,0,0,0-8,.42C160.87,36.7,160.11,37.58,160.11,37.58Z"/><path class="cls-67" d="M183.28,34A15.48,15.48,0,0,0,179,40.64s1.66-2.17,3.18-2.14a.88.88,0,0,1,.88,1.06A9.75,9.75,0,0,0,183.28,34Z"/><path class="cls-68" d="M161.78,45.1s.28-5.61,5.76-7a11.49,11.49,0,0,1,2.16,5.42S166.79,42.94,161.78,45.1Z"/><path class="cls-69" d="M177.49,47.34s.44-4.47,3-6.13c0,0,1.75,1.31,1.57,5.06C182.07,46.27,180.53,45.71,177.49,47.34Z"/><path class="cls-70" d="M161.78,45.1s1.79,2.19,6.77,2.62a7.78,7.78,0,0,0,.86-4.28S164.83,43,161.78,45.1Z"/><path class="cls-70" d="M177.49,47.34V48s.76,1.6,3.52,1.87a7.74,7.74,0,0,0,1-3.62S180.22,45.8,177.49,47.34Z"/><path class="cls-71" d="M167.11,43.33a6.2,6.2,0,0,0-1.15,4,19,19,0,0,0,2.59.43,6.75,6.75,0,0,0,.86-4.28A6.86,6.86,0,0,0,167.11,43.33Z"/><path class="cls-71" d="M180.1,46.32s-.72.76-.85,3.12a5.47,5.47,0,0,0,1.76.42,6.53,6.53,0,0,0,1-3.62A3.11,3.11,0,0,0,180.1,46.32Z"/><path class="cls-67" d="M166.7,47.46s-.45-3,1.29-4.2l1.42.18a6.14,6.14,0,0,1-.86,4.28S167.14,47.56,166.7,47.46Z"/><path class="cls-67" d="M180.73,46.18a12.89,12.89,0,0,0-.95,3.45,3.74,3.74,0,0,0,1.23.23,5.94,5.94,0,0,0,1-3.62A2.89,2.89,0,0,0,180.73,46.18Z"/><path class="cls-72" d="M161.78,45.1s3.32-1.93,9-.83l-1.05-.79A9.47,9.47,0,0,0,161.78,45.1Z"/><path class="cls-72" d="M177.49,47.34a9,9,0,0,1,5.76-.67L182,45.73A6.22,6.22,0,0,0,177.49,47.34Z"/><path class="cls-11" d="M165.37,45.1a2,2,0,0,1,1.72.63A1.58,1.58,0,0,1,165.37,45.1Z"/><path class="cls-11" d="M178.71,47.72s1.41-.27,1.9.37C180.61,48.09,179.85,48.61,178.71,47.72Z"/><path class="cls-73" d="M162.12,45.43a13,13,0,0,0,6.7,3.16l.11-1.5-.38.63S164.58,47.49,162.12,45.43Z"/><path class="cls-73" d="M177.49,48s.46,1.65,3.81,2.39l-.1-.8-.19.28A5.72,5.72,0,0,1,177.49,48Z"/><path class="cls-74" d="M170.75,54.58a12,12,0,0,1,3.56,0c2.3.27,4.88.9,6.3,0a8.7,8.7,0,0,1-3.51,2.17c-1.62.28-4.1-1.15-4.1-1.15l-1.09,0A3,3,0,0,1,170.75,54.58Z"/><path class="cls-75" d="M172.07,55.62a1.75,1.75,0,0,1,1-.27c.47.09,1,.78,1,.78A4.74,4.74,0,0,0,172.07,55.62Z"/><path class="cls-76" d="M180.61,54.58c.6-.59-2.51-6.13-4-6.34s-2.89,6.22-2.89,6.22l4.08.56A3.62,3.62,0,0,0,180.61,54.58Z"/><path class="cls-77" d="M182.83,37.12C182,37,179,40.64,179,40.64s-1.89,5.86-1.52,7.6,5,2.66,5,2.66l.2-.31h0a8.85,8.85,0,0,1-.57-1.76c-.36-1.8.42-5.91,1-9.27a6.8,6.8,0,0,0,.21-1.34C183.3,37.68,183.22,37.16,182.83,37.12Z"/><path class="cls-78" d="M182.7,60.94c-.95-2-.37-3-8.62-4.1-11.68-1.54-12.68,2-14.67,1.48l-.23-.08c-2.15-.84-7.22-5.82-7.35-12.53a18.43,18.43,0,0,1,4.54-11.91c-1.69-1.42-2.37-5.55-.54-7.31s4.94-1.35,12.59-.54,7.65.34,7.65.34a7.28,7.28,0,0,1,4.21,3.63c.08.14.12.23.12.23l.95-.88a12.45,12.45,0,0,1,2.1,7.78s4.19-8.53,3.71-9.74a32.52,32.52,0,0,0-3.44-5.69h0s-.68-6.5-2.71-6.5-10.69,2-10.69,2a12.26,12.26,0,0,0,.81-4.8l0,0c-2.83,2.54-5.6,2.82-9.51,4.63a10.17,10.17,0,0,0-3.67,2.66l-.26.32-.28.33a13.61,13.61,0,0,1-.88,1.05l-.05.05,0,0a10.8,10.8,0,0,1-1.13,1.06c-2.58,2.09-8.24,3.49-8.91,5.71s.85,5.23,1.67,8.34a16.81,16.81,0,0,1,.43,5.87,11.48,11.48,0,0,1,1.8,8.55c-.79,4.55-2.52,5.3-2.52,5.3a7.75,7.75,0,0,0-.65,4.85C149.61,71,160,76.91,160,76.91c9.2,3.43,15.25,1.94,15.25,1.94h0c6.69-4.36,9-18.81,9.09-19.48C184.19,59.54,183,61.47,182.7,60.94Zm-4.13,9.21c-1.62-.27-2-4.38-2.5-4.92s-3.48-.32-3.48-.32-2.71,3.07-3.79,3.16-6.86-2.26-5.61-5.77,5.61-4,5.61-4a10.56,10.56,0,0,0,5.64,2.12c3.39.22,4.61-.4,5-.58s2.58.81,2.53,3.88C181.94,65.88,180.2,70.42,178.57,70.15Z"/><path class="cls-79" d="M178.15,49.48s2.92,3.62,2.64,5-3.69,2.29-3.69,2.29,2.71-.94,3.27-2.29A18,18,0,0,0,178.15,49.48Z"/><path class="cls-80" d="M183.45,37.05a12.45,12.45,0,0,0-2.1-7.78,20.84,20.84,0,0,0,2.36-7.65h0a26.39,26.39,0,0,1,1.1,5.08l2.34.61C187.64,28.52,183.45,37.05,183.45,37.05Z"/><path class="cls-81" d="M180.28,29.92a7.28,7.28,0,0,0-4.21-3.63s0,.47-7.65-.34-10.76-1.22-12.59.54-1.15,5.89.54,7.31a18.43,18.43,0,0,0-4.54,11.91c.13,6.71,5.2,11.69,7.35,12.53l-.1.74s.38,15.36,4.11,16.58,11.48.59,12.2,1.31-.1,1.87-.17,2h0s-6.05,1.49-15.25-1.94c0,0-10.35-5.92-12.85-15.86a7.75,7.75,0,0,1,.65-4.85s1.73-.75,2.52-5.3a11.48,11.48,0,0,0-1.8-8.55,16.81,16.81,0,0,0-.43-5.87c-.82-3.11-2.35-6.13-1.67-8.34a9.72,9.72,0,0,0,7.17-1.58s.76-1,4.11-1.59,16.82.81,16.82.81a11.67,11.67,0,0,0-4.2-1.86c-2.68-.71-11.86.11-12.84.19,1.05-.19,11.45-2,12.63-1.61s5.76,2.43,5.76,2.43c-.4-2.06-4.43-7-4.43-7a63.09,63.09,0,0,0-9.41.88,12.19,12.19,0,0,0-5.5,2.53l.88-1.05.28-.33.26-.32,1.3-.22,6.53-2.64a27.45,27.45,0,0,0,5.35-4.43l0,0a12.26,12.26,0,0,1-.81,4.8c5.52-.68,7.38-.34,7.38-.34C180.2,20.3,180.28,29.92,180.28,29.92Z"/><path class="cls-82" d="M160,76.91a34.34,34.34,0,0,1,8.48-.59c5.1.2,8,.22,6.77,2.53C175.21,78.85,168.8,80.3,160,76.91Z"/><path class="cls-83" d="M177.69,16.74s3.1-1.21,4.33-1a2.46,2.46,0,0,0-1-.78c-.5-.13-10.71,2.13-10.71,2.13S176.67,16.34,177.69,16.74Z"/><path class="cls-84" d="M171.4,17.89s-.25,3.38-1.33,4.61l-12.63,1.61-3.71-.65a9.46,9.46,0,0,0,3-2.46C158.32,19.16,166.56,17.35,171.4,17.89Z"/><path class="cls-85" d="M183.71,21.62a28.45,28.45,0,0,1,1.11,5.08l2.34.61A16.83,16.83,0,0,0,183.71,21.62Z"/><path class="cls-86" d="M149.27,50.38s-.88-4.26-3.06-6.37a5.11,5.11,0,0,0-4.66-1.43s.67,7.9,1.38,9.83a4.28,4.28,0,0,0,1.8,2.44,6.1,6.1,0,0,1-1.73-4c-.2-2.62-.27-6.3.31-6.74s2.9,1.27,2.9,1.27A7.67,7.67,0,0,0,145,48.66c-.44,2.33,1.19,4,1.8,4s0-2.7.06-3.46S148.35,48.59,149.27,50.38Z"/><path class="cls-87" d="M147.1,45.08A5.33,5.33,0,0,0,145,49.85c.26,3.21,2.09,3.07,2.09,2.39a20.63,20.63,0,0,1-.16-3.38c.19-1,1.77-.54,1.77-.54A23.51,23.51,0,0,0,147.1,45.08Z"/><path class="cls-88" d="M184.31,59.36s-3,13.48-9.1,19.49C175.21,78.85,182.21,76.1,184.31,59.36Z"/><path class="cls-88" d="M181,15s1.56,1.21,1.86,5.43a24,24,0,0,1-1.53,8.89,17,17,0,0,0,2.57-7.34C184.14,18.1,182.26,15.44,181,15Z"/><path class="cls-89" d="M162.14,23.77a36.59,36.59,0,0,0,7.56,1.58l4.78.43a9.35,9.35,0,0,0-5-2A34.68,34.68,0,0,0,162.14,23.77Z"/><path class="cls-90" d="M179.57,59.66A2.72,2.72,0,0,1,182,61.82a18.19,18.19,0,0,1,.69,3.22l.61-2.38s-.8-3-1.63-3.68a3.35,3.35,0,0,0-2.11-.86Z"/><path class="cls-91" d="M174.92,57.49l.29,2.57a9.27,9.27,0,0,0,3.5-.4L179,58.1A19.26,19.26,0,0,0,174.92,57.49Z"/><path class="cls-88" d="M184.51,90.73s12.31,9,13.91,12.08,2.24,12.79,4.4,17c0,0-1.47-6.87-2.51-12.25s-.79-5.46-1.36-6.78S189.18,93.08,184.51,90.73Z"/><path class="cls-88" d="M182.31,140.77s-5.93,25.4-5.66,27.11,4.1,5.22,4.28,6.18c0,0-2.93,3.93-2.8,4.8s5.15,6.37,5,8.07c0,.5-3.29,5.86-3.29,5.86s3.68-5.27,3.86-6.11-4.5-7.88-4.64-8.59c-.35-1.85,2.34-3.21,2.43-4.43s-3.64-4.2-3.67-6.18S182.31,140.77,182.31,140.77Z"/><path class="cls-88" d="M183.51,201.3c4.08,8.9,7,18.13,10.07,28.51,6,20.39,7,42.39,9,57.39C202.59,287.2,201.59,230.2,183.51,201.3Z"/><path class="cls-76" d="M102.2,84.9a7.3,7.3,0,0,1-4.69-3.6c-1.38-2.9-.48-7.09-.48-7.09a73.41,73.41,0,0,0,3.89,6.69C102.22,82.6,102.56,84.54,102.2,84.9Z"/><path class="cls-92" d="M204.59,69.77l2.3,65.58a4.83,4.83,0,0,0,4.83,4.66h113a4.82,4.82,0,0,0,4.83-4.72l1.58-66.35A4.82,4.82,0,0,0,326.24,64l-116.86.76A4.83,4.83,0,0,0,204.59,69.77Z"/><path class="cls-93" d="M324.69,140.19h-113a5,5,0,0,1-5-4.84l-2.3-65.58a5,5,0,0,1,5-5.18l116.86-.77a5,5,0,0,1,3.61,1.5A4.91,4.91,0,0,1,331.28,69L329.7,135.3A5,5,0,0,1,324.69,140.19Zm1.58-76h0l-116.85.76a4.62,4.62,0,0,0-3.33,1.44,4.56,4.56,0,0,0-1.29,3.38l2.3,65.58a4.63,4.63,0,0,0,4.65,4.49h113a4.67,4.67,0,0,0,4.65-4.54l1.59-66.35a4.66,4.66,0,0,0-4.66-4.76Z"/><path class="cls-94" d="M204.76,73.11H331l.2-3.46A5.3,5.3,0,0,0,325.84,64L209,65a4.36,4.36,0,0,0-4.34,4.46Z"/><polygon class="cls-95" points="211.1 78.4 211.1 116.35 249.74 116.35 249.74 78.2 211.1 78.4"/><rect class="cls-96" x="287.07" y="80.94" width="16.81" height="16.81"/><rect class="cls-97" x="306.9" y="80.94" width="16.81" height="16.81"/><rect class="cls-98" x="266.91" y="80.94" width="16.81" height="16.81"/><rect class="cls-99" x="280.73" y="107.55" width="42.98" height="4.03"/><rect class="cls-99" x="269.98" y="113.67" width="53.72" height="1.25"/><rect class="cls-99" x="270.49" y="99.89" width="10.28" height="1.25"/><rect class="cls-99" x="290.34" y="99.89" width="10.28" height="1.25"/><rect class="cls-99" x="310.16" y="99.89" width="10.28" height="1.25"/><rect class="cls-99" x="266.91" y="115.7" width="17.28" height="1.25"/><rect class="cls-99" x="269.98" y="117.7" width="53.72" height="1.25"/><rect class="cls-99" x="266.91" y="119.7" width="56.79" height="1.25"/><rect class="cls-99" x="266.91" y="121.7" width="56.79" height="1.25"/><rect class="cls-99" x="269.98" y="129.79" width="53.72" height="1.25"/><rect class="cls-99" x="266.91" y="131.79" width="56.79" height="1.25"/><rect class="cls-99" x="266.91" y="133.79" width="56.79" height="1.25"/><rect class="cls-99" x="266.91" y="123.7" width="54.51" height="1.25"/><rect class="cls-99" x="269.98" y="125.7" width="53.72" height="1.25"/><rect class="cls-99" x="266.91" y="127.71" width="46.01" height="1.25"/><g class="cls-100"><path class="cls-101" d="M221.93,108.74a11,11,0,1,1,11-11A11,11,0,0,1,221.93,108.74Zm0-21.27A10.28,10.28,0,1,0,232.2,97.75,10.29,10.29,0,0,0,221.93,87.47Z"/></g><circle class="cls-11" cx="221.93" cy="97.75" r="5.97"/><g class="cls-100"><path class="cls-101" d="M249.74,89.19a11,11,0,1,1,11-11A11,11,0,0,1,249.74,89.19Zm0-21.27A10.28,10.28,0,1,0,260,78.2,10.29,10.29,0,0,0,249.74,67.92Z"/></g><circle class="cls-11" cx="249.74" cy="78.2" r="5.62" transform="translate(133.67 312.74) rotate(-81.06)"/><g class="cls-100"><polygon class="cls-11" points="209.18 67.96 209.98 66.74 214.32 70.55 213.66 71.47 209.18 67.96"/><polygon class="cls-11" points="214.44 67.96 213.63 66.74 209.29 70.55 209.96 71.47 214.44 67.96"/></g><rect class="cls-11" x="289.02" y="67.57" width="38.9" height="1.95"/><polygon class="cls-102" points="84.34 39.41 84.34 56.29 104.53 56.46 104.8 38.87 84.34 39.41"/><polygon class="cls-103" points="104.8 38.87 106.12 41.09 105.46 56.44 104.53 56.46 104.8 38.87"/><polygon class="cls-11" points="87.95 45.1 89.81 42.4 99.89 50.86 98.34 52.92 87.95 45.1"/><polygon class="cls-11" points="100.15 45.1 98.29 42.4 88.2 50.86 89.75 52.92 100.15 45.1"/><path class="cls-104" d="M131.44,238.06H62.36a5.65,5.65,0,0,1-5.66-5.53l-1.29-56.65a5.66,5.66,0,0,1,5.66-5.79H133a5.66,5.66,0,0,1,5.66,5.81l-1.56,56.66A5.65,5.65,0,0,1,131.44,238.06Z"/><path class="cls-105" d="M131.44,238.24H62.36a5.88,5.88,0,0,1-5.84-5.7l-1.29-56.66a5.86,5.86,0,0,1,5.84-6H133a5.84,5.84,0,0,1,5.83,6l-1.55,56.66A5.8,5.8,0,0,1,131.44,238.24Zm-70.37-68a5.48,5.48,0,0,0-5.48,5.6l1.29,56.66a5.52,5.52,0,0,0,5.48,5.35h69.08a5.44,5.44,0,0,0,5.47-5.32l1.56-56.66a5.48,5.48,0,0,0-5.48-5.63Z"/><rect class="cls-11" x="74.03" y="181.68" width="36.33" height="1.56"/><rect class="cls-11" x="74.03" y="185.46" width="18.16" height="1.55"/><rect class="cls-11" x="74.03" y="188.62" width="18.16" height="1.56"/><rect class="cls-11" x="94.24" y="188.62" width="14.45" height="1.56"/><rect class="cls-11" x="74.03" y="191.78" width="29.28" height="1.55"/><rect class="cls-11" x="74.03" y="194.94" width="10.42" height="1.56"/><rect class="cls-11" x="86.6" y="204.41" width="18.03" height="1.55"/><rect class="cls-11" x="74.03" y="198.1" width="32.67" height="1.55"/><rect class="cls-11" x="74.03" y="201.25" width="25.13" height="1.56"/><rect class="cls-11" x="74.03" y="204.41" width="11.82" height="1.55"/><rect class="cls-11" x="74.03" y="207.57" width="18.16" height="1.56"/><rect class="cls-11" x="74.03" y="210.73" width="5.21" height="1.56"/><rect class="cls-11" x="81.39" y="210.73" width="18.91" height="1.56"/><rect class="cls-11" x="86.6" y="213.8" width="18.03" height="1.56"/><rect class="cls-11" x="74.03" y="213.8" width="11.82" height="1.56"/><rect class="cls-11" x="74.03" y="216.95" width="18.16" height="1.55"/><rect class="cls-11" x="74.03" y="220.11" width="5.21" height="1.56"/><rect class="cls-11" x="81.39" y="220.11" width="18.91" height="1.56"/><path class="cls-106" d="M316.8,51.35a3.2,3.2,0,1,1-3.2-3.19A3.19,3.19,0,0,1,316.8,51.35Z"/><path class="cls-107" d="M17.52,125.39a4,4,0,1,1-4-4A4,4,0,0,1,17.52,125.39Z"/><circle class="cls-108" cx="322.98" cy="51.35" r="3.19"/><circle class="cls-109" cx="117.1" cy="73.3" r="2.26"/><circle class="cls-110" cx="268.32" cy="172.92" r="2.26"/><circle class="cls-111" cx="33.61" cy="195.43" r="2.02"/><path class="cls-112" d="M68,175.61H33.15a5.19,5.19,0,0,1-5.2-5l-.78-22.93a5.21,5.21,0,0,1,5.2-5.38H68.71a5.19,5.19,0,0,1,5.2,5.36l-.7,22.93A5.2,5.2,0,0,1,68,175.61Z"/><path class="cls-113" d="M68,175.79H33.15a5.36,5.36,0,0,1-5.38-5.2L27,147.66a5.38,5.38,0,0,1,5.37-5.56H68.71a5.36,5.36,0,0,1,5.38,5.55l-.7,22.93A5.35,5.35,0,0,1,68,175.79ZM32.37,142.46A5,5,0,0,0,28.76,144a5,5,0,0,0-1.41,3.66l.78,22.93a5,5,0,0,0,5,4.86H68a5,5,0,0,0,5-4.88l.71-22.93a5,5,0,0,0-5-5.17Z"/><polygon class="cls-11" points="42.44 150.52 33.85 160.48 42.6 167.91 42.6 164.07 37.54 159.69 42.24 154.37 42.44 150.52"/><polygon class="cls-11" points="57.55 150.96 66.15 160.93 57.4 168.36 57.4 164.52 62.46 160.14 56.82 154.18 57.55 150.96"/><polygon class="cls-11" points="44.32 167.91 51.81 151.41 55.33 151.41 46.84 167.91 44.32 167.91"/><path class="cls-114" d="M302.58,222.8H259a6.51,6.51,0,0,1-6.51-6.29l-1-28.68A6.52,6.52,0,0,1,258,181.1h45.46a6.5,6.5,0,0,1,6.5,6.71l-.87,28.68A6.51,6.51,0,0,1,302.58,222.8Z"/><path class="cls-113" d="M302.58,223H259a6.67,6.67,0,0,1-6.69-6.46l-1-28.69a6.68,6.68,0,0,1,6.68-6.91h45.46a6.68,6.68,0,0,1,6.68,6.89l-.87,28.69A6.66,6.66,0,0,1,302.58,223ZM258,181.28a6.34,6.34,0,0,0-6.33,6.54l1,28.69a6.3,6.3,0,0,0,6.33,6.11h43.61a6.3,6.3,0,0,0,6.33-6.13l.88-28.69a6.34,6.34,0,0,0-6.33-6.52Z"/><rect class="cls-99" x="260.23" y="185.72" width="39.94" height="23.72"/><polygon class="cls-11" points="276.67 191.6 276.67 203.55 286.88 197.03 276.67 191.6"/><rect class="cls-99" x="260.23" y="213.81" width="39.94" height="2.17"/><rect class="cls-11" x="260.23" y="213.81" width="10.34" height="2.17"/><path class="cls-115" d="M231,178.22l-2.08,6C230,180.89,231.69,178.75,231,178.22Zm-2.08,6-2.09,6C227.32,190,227.73,187.48,228.89,184.18Zm2.08-6-2.08,6C230,180.89,231.69,178.75,231,178.22Zm-2.08,6-2.09,6C227.32,190,227.73,187.48,228.89,184.18Zm6,5.17,2,1.15,2.18-6-2.34-.39c0-.22.09-.44.11-.66a15.34,15.34,0,0,0,.2-3l2.45-1.53-1.11-5.26L236.07,176a7.13,7.13,0,0,0-1.2-1.75,5,5,0,0,0-.41-.39l1.44-3.32-3.82-1.24h0l-.92,3.34a6.28,6.28,0,0,0-2.59.61l-.42-3.16-4.21,3.18,1,2.8a16.1,16.1,0,0,0-2.06,3l-2-1.14-2.19,6,2.34.39a16.49,16.49,0,0,0-.31,3.64l-2.45,1.54,1.12,5.25,2.35-2.24a6.63,6.63,0,0,0,1.61,2.14l-1.44,3.32,3.76,1.47.58-2.12.4-1.45a6.3,6.3,0,0,0,2.59-.6l.41,3.16,4.21-3.19-1-2.8a15.43,15.43,0,0,0,1.65-2.29C234.64,189.82,234.77,189.59,234.9,189.35Zm-6-5.17c-1.16,3.3,0,6.7-2.09,6s-2.86-4-1.71-7.29,3.79-5.37,5.88-4.64S230,180.89,228.89,184.18Zm2.08-6-2.08,6C230,180.89,231.69,178.75,231,178.22Zm-2.08,6-2.09,6C227.32,190,227.73,187.48,228.89,184.18Z"/><path class="cls-116" d="M236.93,190.5l2.18-6-2.23-1.05-.36-.17.24-3.29,2.47-1.21-.81-5.1L233,172l1,2.37,1.88-3.83-3.82-1.24-1.57-.51-3.77-1.47-.7,2.57-3.28-1.56-4.21,3.19,1.28,3.44-3.93,10.9-2,7.09,3.74.41-1.22,2.8,3.77,1.47,5.39,1.76-.87-1.74-.54-1,2,.65,3.4,1.11,4.21-3.19-2.6-3.06,3.28-2Zm-11.84-7.64c1.16-3.3,3.79-5.37,5.88-4.64l-2.08,6-2.09,6C224.7,189.41,223.94,186.15,225.09,182.86Z"/><path class="cls-117" d="M231.54,188.74l2.18-6-2.34-.39a15.86,15.86,0,0,0,.31-3.63l2.45-1.54L233,172l-2.34,2.25a6.67,6.67,0,0,0-1.61-2.15l1.44-3.31-3.77-1.47-1,3.56a6.45,6.45,0,0,0-2.59.61l-.42-3.16-4.21,3.18,1,2.8a16.57,16.57,0,0,0-2.05,3l-2-1.14-2.18,6,2.34.39a16.4,16.4,0,0,0-.31,3.63l-2.45,1.54,1.12,5.25,2.35-2.24a6.36,6.36,0,0,0,1.6,2.14l-1.43,3.32,3.76,1.47,1-3.56a6.45,6.45,0,0,0,2.59-.61l.42,3.16,4.21-3.18-1-2.8a16.31,16.31,0,0,0,2-3Zm-10.14-.35c-2.09-.74-2.85-4-1.7-7.29s3.79-5.37,5.88-4.64,2.85,4,1.7,7.29S223.49,189.12,221.4,188.39Z"/><polygon class="cls-118" points="239.53 178.97 234.14 177.21 231.69 178.75 237.08 180.5 239.53 178.97"/><polygon class="cls-119" points="233.82 195.14 228.43 193.38 227.46 190.59 232.85 192.34 233.82 195.14"/><polygon class="cls-118" points="229.07 172.05 232.03 172.91 233.03 171.95 234.99 172.59 235.9 170.49 230.51 168.74 229.07 172.05"/><path class="cls-118" d="M221.21,194l2.83,1.17-.24-1.78A5.15,5.15,0,0,1,221.21,194Z"/><path class="cls-118" d="M221.65,177.85l4.75,2.52a7.21,7.21,0,0,1,1.23-1.3S226.39,173.83,221.65,177.85Z"/><polygon class="cls-120" points="112.52 0 117.1 9.18 114.04 10.57 109.75 2.14 112.52 0"/><polygon class="cls-121" points="9.32 213.86 13.56 218.51 15.22 216.59 11.22 212.19 9.32 213.86"/><polygon class="cls-122" points="224.92 56.02 220.65 58.61 218.93 55.36 223.6 52.63 224.92 56.02"/><polygon class="cls-122" points="245.95 220.13 239.83 224.48 238.12 221.23 244.06 217.76 245.95 220.13"/><polygon class="cls-123" points="237.87 33.82 236.83 9.77 268.32 9.77 267.02 33.75 237.87 33.82"/><polygon class="cls-124" points="236.83 9.77 235.89 11.19 236.83 33.82 237.87 33.82 236.83 9.77"/><polygon class="cls-11" points="247.28 14.57 242.34 14.04 243.02 30.52 247.28 30.1 247.28 28.4 244.81 28.45 244.53 15.75 247.28 15.83 247.28 14.57"/><polygon class="cls-11" points="257.4 14.57 262.34 14.04 261.67 30.52 257.4 30.1 257.4 28.4 259.87 28.45 260.16 15.75 257.4 15.83 257.4 14.57"/><polygon class="cls-125" points="20.76 86.46 21.46 70.07 0 70.07 0.88 86.41 20.76 86.46"/><polygon class="cls-126" points="21.46 70.07 22.11 71.03 21.46 86.46 20.76 86.46 21.46 70.07"/><path class="cls-11" d="M13.2,73.36a13.72,13.72,0,0,1,2.76.11c.42.19-.1,4-.1,4l.93.86-.87.85s0,3.89-.51,4.21a6,6,0,0,1-2.45,0v-1a5.55,5.55,0,0,0,1.8-.11c.26-.2.24-3.6.24-3.6l.41-.45-.41-.5s.07-2.42,0-3.08c0-.44-1.83-.47-1.83-.47Z"/><path class="cls-11" d="M7.8,73.36A13.72,13.72,0,0,0,5,73.47c-.42.19.1,4,.1,4l-.93.86.87.85s0,3.89.51,4.21a6,6,0,0,0,2.45,0v-1a5.55,5.55,0,0,1-1.8-.11C6,82.13,6,78.73,6,78.73l-.42-.45.42-.5s-.08-2.42,0-3.08c0-.44,1.83-.47,1.83-.47Z"/><path class="cls-93" d="M201.87,36l-5.26-13.76,13.64,2.85ZM197.18,22.7,202,35.26l7.64-10Z"/><rect class="cls-93" x="237.83" y="227.73" width="7.81" height="0.36" transform="translate(-84.99 288.14) rotate(-53.76)"/><polygon class="cls-93" points="196.2 173.03 191.24 166.86 191.51 166.63 196.48 172.81 196.2 173.03"/><polygon class="cls-93" points="43.07 216.41 33.17 209.23 33.38 208.94 43.28 216.13 43.07 216.41"/><rect class="cls-93" x="32.11" y="212.5" width="12.24" height="0.36" transform="translate(-154.12 114.21) rotate(-52.7)"/><rect class="cls-93" x="23.79" y="105.57" width="0.36" height="7.24" transform="translate(-83.84 79.62) rotate(-62.28)"/><polygon class="cls-93" points="273.45 24.58 273.19 24.35 280.6 15.89 280.86 16.13 273.45 24.58"/><rect class="cls-93" x="130.84" y="44.71" width="0.36" height="7.43" transform="translate(-7.86 63.42) rotate(-26.45)"/><rect class="cls-93" x="75.61" y="160.58" width="11.1" height="0.36" transform="translate(-84.24 89.53) rotate(-39.91)"/><line class="cls-127" x1="155.74" y1="223.86" x2="157.86" y2="225.67"/></g></g></g></svg>