<svg xmlns="http://www.w3.org/2000/svg" viewBox="0 0 601.02 403.3"><defs><style>.cls-1{fill:#fff;}</style></defs><g id="Layer_2" data-name="Layer 2"><g id="BR"><g id="BR-2" data-name="BR"><path id="R" class="cls-1" d="M601,133.85q0-60-43.12-98.94Q519.22.05,448.92.05H322.83V403.19h82l0-324h39.64c48.46,0,70.08,15.4,70.08,47.16,0,36-18.34,54.52-60.27,54.52l-17.2.74L437,237.9l69.66,165.4,87.22-.11-71.14-155C570,222.85,601,174.6,601,133.85Z"/><path id="B" class="cls-1" d="M193.43,0H150.32Q20.09,0,20.09,102.48q0,50.82,44.59,84.47Q0,215,0,287.07q0,55.21,38.1,88A109.09,109.09,0,0,0,78,396.93q21.27,6.19,57.3,6.21h41.95v-75.3H150.34q-36.32,0-51.24-9.24T84.21,286.15q0-39.33,60.77-39.33h32.24V163.45q-66.7,0-66.72-45.87,0-42.28,60.17-42.3h37.71V403.14h81.47V0Z"/></g></g></g></svg>