<svg xmlns="http://www.w3.org/2000/svg" viewBox="0 0 639.24 425.37" fill="#ffffff"><path d="M556.65,261.72l75,163.54-92,.11L466.22,250.92l.13-59.4,18.15-.78c44.22,0,63.56-19.5,63.56-57.5,0-33.5-22.8-49.74-73.91-49.74h-47.3l0,341.76H340.34V.06H478.82q74.12,0,114.94,36.76,45.48,41.13,45.48,104.36C639.24,184.16,606.55,235.05,556.65,261.72Z"/><path d="M0,302.78Q0,361,40.19,395.6q19.62,16.53,42.05,23t60.43,6.55h44.25V345.78H158.57q-38.31,0-54-9.74t-15.7-34.23q0-41.47,64.09-41.48h34V172.4q-70.36,0-70.37-48.39,0-44.6,63.46-44.61h47.12V425.2h85.93V0H158.55Q21.19,0,21.19,108.09q0,53.6,47,89.09Q0,226.77,0,302.78Z"/></svg>