<svg xmlns="http://www.w3.org/2000/svg" viewBox="0 0 708.66 708.66"><defs><style>.cls-1{fill:#f2f2f2;}.cls-2,.cls-3{fill:#333;stroke:#333;}.cls-2{stroke-miterlimit:10;stroke-width:3px;}.cls-3{font-size:500px;stroke-linejoin:bevel;stroke-width:5px;font-family:PlaytimeWithHotToddies3D;}</style></defs><g id="Layer_2" data-name="Layer 2"><g id="Layer_1-2" data-name="Layer 1"><circle class="cls-1" cx="354.33" cy="354.33" r="354.33"/><path class="cls-2" d="M211.93,535.51q-54.69,0-84-27.38T98.54,429.74q0-30.86,14.39-52.89t40.74-30Q130.46,335.92,118.4,316t-12.05-44.79q0-48.78,28.79-73.42t83.94-24.64H330.47V535.51ZM274,223.92H219.08q-29,0-42.75,12T162.6,274.69q0,24.39,14.85,37.71t41.18,13.31H274ZM206.58,372q-51.79,1.25-51.79,57.74,0,26.13,15,40.81t41.52,14.69H274V372Z"/><text class="cls-3" transform="translate(315.39 521.97)">R</text></g></g></svg>