<svg xmlns="http://www.w3.org/2000/svg" viewBox="0 0 708.66 708.66"><defs><style>.cls-1{fill:#f2f2f2;}.cls-2,.cls-4{fill:#333;}.cls-2,.cls-5{stroke:#333;}.cls-2{stroke-miterlimit:10;stroke-width:3px;}.cls-3{isolation:isolate;}.cls-5{fill:none;stroke-linejoin:bevel;stroke-width:5px;}</style></defs><g id="Layer_2" data-name="Layer 2"><g id="Layer_1-2" data-name="Layer 1"><g id="Layer_2-2" data-name="Layer 2"><g id="Layer_1-2-2" data-name="Layer 1-2"><circle class="cls-1" cx="354.33" cy="354.33" r="354.33"/><path class="cls-2" d="M211.93,535.51q-54.69,0-84-27.38T98.54,429.74q0-30.86,14.39-52.89t40.74-30Q130.46,335.92,118.4,316t-12.05-44.79q0-48.78,28.79-73.42t83.94-24.64H330.47V535.51ZM274,223.92H219.08q-29,0-42.75,12T162.6,274.69q0,24.39,14.85,37.71t41.18,13.31H274ZM206.58,372q-51.79,1.25-51.79,57.74,0,26.13,15,40.81t41.52,14.69H274V372Z"/><g class="cls-3"><path class="cls-4" d="M353.89,261q0-9,.25-19.5t.75-19.5q.5-9,.5-10a122.7,122.7,0,0,1,1.75-15.25,29.61,29.61,0,0,1,4.5-11.5,20.78,20.78,0,0,1,8.75-7.25q5.49-2.49,15.5-2.5a65.63,65.63,0,0,0,15-1.75,66.19,66.19,0,0,1,15-1.75h37.5a316.84,316.84,0,0,1,38,2.5,90.32,90.32,0,0,1,36.75,13.75,128,128,0,0,1,31.25,28,133.38,133.38,0,0,1,21,36.5q7.5,19.75,6,38.25t-7.5,31.75a73.88,73.88,0,0,1-15.75,22.75,98.53,98.53,0,0,1-23,16.5q-13.26,7-28.75,13.5a181.58,181.58,0,0,1,24.25,31.25A266,266,0,0,0,558.89,439q14.49,17.5,29.75,34.5a186.25,186.25,0,0,1,26.25,38,18,18,0,0,1-12.5,10,159.34,159.34,0,0,1-16.5,3q-8.5,1-16.5,1.75t-11.5.75h-2q-14.5-14.49-27.75-29.5t-26.75-30q-7-8-14.5-18.5t-15.5-21.25q-8-10.74-16.25-20.25A107.1,107.1,0,0,0,438.89,392a67.8,67.8,0,0,1-11.75,0,47.11,47.11,0,0,0-11.75.5q-1,26.5-.25,53.25T418.39,499q.5,5,.75,12.25a38.64,38.64,0,0,1-1.25,12.25q-1.5,7.5-9.75,10a54.7,54.7,0,0,1-18.5,2,74.9,74.9,0,0,1-19.5-3.5q-9.25-3-13.25-6-4-65-3-127.75t1-127.25C354.22,270.31,353.89,267,353.89,261ZM588.14,488.72q-8.25-10.25-16.75-20.25t-17.25-20a217.72,217.72,0,0,1-16.25-21q-10.5-15.5-20.5-29a179.65,179.65,0,0,0-24.5-26.5q16-6.5,30.25-12.75A113.38,113.38,0,0,0,548.64,344a78.62,78.62,0,0,0,18.75-21.75q7.5-12.75,9-32.25,1.5-16.5-5.5-34.5a121.71,121.71,0,0,0-19.25-33A124.66,124.66,0,0,0,523.39,197q-16-10.5-33-12.5a304.73,304.73,0,0,0-37.5-2.5h-37a66.19,66.19,0,0,0-15,1.75,65.63,65.63,0,0,1-15,1.75,40.72,40.72,0,0,0-11.5,1.25q-4,1.26-6,8.75a84.93,84.93,0,0,0-3,16q-1,9.51-1.5,20t-.5,20.5a122.08,122.08,0,0,0,1,17v.5a3.83,3.83,0,0,1-.5,1.5l1-.5q0,62.5-1,125t3,125c1,.67,3.66,1.5,8,2.5a113.79,113.79,0,0,0,13.5,2.25,56.44,56.44,0,0,0,13,0c4-.5,6.16-2.09,6.5-4.75,1-2.33,1.41-5.66,1.25-10s-.42-7.83-.75-10.5q-2.5-27.5-3.25-55.25t.25-55.25a5.36,5.36,0,0,1,2.5-5,15.75,15.75,0,0,1,5.75-2,41.48,41.48,0,0,1,6.25-.5h5.5c2.66,0,5.41.09,8.25.25a44.22,44.22,0,0,0,8.25-.25,100,100,0,0,1,17,15.5q9,10,17.75,21.25t17.25,22.5q8.49,11.25,15.5,19.25,12.5,14.5,25,28.75T559.89,517c2.33,0,5.5-.16,9.5-.5s8.08-.83,12.25-1.5,8.16-1.41,12-2.25a52.34,52.34,0,0,0,9.25-2.75A181.21,181.21,0,0,0,588.14,488.72ZM439.39,217.47q34-2,57,8.5t34,26.5a52.38,52.38,0,0,1,9.5,34.75q-1.5,18.75-16.75,33.5t-44.5,23q-29.25,8.25-73.75,2.75-1-8.49-1.75-25.75t-.5-36q.24-18.75,1.5-35.75t4.25-25.5a116.08,116.08,0,0,1,30.5-5.5Zm1.5,10.5a78.2,78.2,0,0,0-12.25,1q-6.25,1-12.25,2.5a164.66,164.66,0,0,0-2.5,21.25q-1,14.25-1.25,30t0,30.75q.24,15,1.25,24,38,4,63-3t38-19.75q13-12.75,14.5-28.25t-7.75-29.25q-9.25-13.74-29-22.25t-49.25-7.5l-.5.5Z"/></g><g class="cls-3"><path class="cls-5" d="M353.89,261q0-9,.25-19.5t.75-19.5q.5-9,.5-10a122.7,122.7,0,0,1,1.75-15.25,29.61,29.61,0,0,1,4.5-11.5,20.78,20.78,0,0,1,8.75-7.25q5.49-2.49,15.5-2.5a65.63,65.63,0,0,0,15-1.75,66.19,66.19,0,0,1,15-1.75h37.5a316.84,316.84,0,0,1,38,2.5,90.32,90.32,0,0,1,36.75,13.75,128,128,0,0,1,31.25,28,133.38,133.38,0,0,1,21,36.5q7.5,19.75,6,38.25t-7.5,31.75a73.88,73.88,0,0,1-15.75,22.75,98.53,98.53,0,0,1-23,16.5q-13.26,7-28.75,13.5a181.58,181.58,0,0,1,24.25,31.25A266,266,0,0,0,558.89,439q14.49,17.5,29.75,34.5a186.25,186.25,0,0,1,26.25,38,18,18,0,0,1-12.5,10,159.34,159.34,0,0,1-16.5,3q-8.5,1-16.5,1.75t-11.5.75h-2q-14.5-14.49-27.75-29.5t-26.75-30q-7-8-14.5-18.5t-15.5-21.25q-8-10.74-16.25-20.25A107.1,107.1,0,0,0,438.89,392a67.8,67.8,0,0,1-11.75,0,47.11,47.11,0,0,0-11.75.5q-1,26.5-.25,53.25T418.39,499q.5,5,.75,12.25a38.64,38.64,0,0,1-1.25,12.25q-1.5,7.5-9.75,10a54.7,54.7,0,0,1-18.5,2,74.9,74.9,0,0,1-19.5-3.5q-9.25-3-13.25-6-4-65-3-127.75t1-127.25C354.22,270.31,353.89,267,353.89,261ZM588.14,488.72q-8.25-10.25-16.75-20.25t-17.25-20a217.72,217.72,0,0,1-16.25-21q-10.5-15.5-20.5-29a179.65,179.65,0,0,0-24.5-26.5q16-6.5,30.25-12.75A113.38,113.38,0,0,0,548.64,344a78.62,78.62,0,0,0,18.75-21.75q7.5-12.75,9-32.25,1.5-16.5-5.5-34.5a121.71,121.71,0,0,0-19.25-33A124.66,124.66,0,0,0,523.39,197q-16-10.5-33-12.5a304.73,304.73,0,0,0-37.5-2.5h-37a66.19,66.19,0,0,0-15,1.75,65.63,65.63,0,0,1-15,1.75,40.72,40.72,0,0,0-11.5,1.25q-4,1.26-6,8.75a84.93,84.93,0,0,0-3,16q-1,9.51-1.5,20t-.5,20.5a122.08,122.08,0,0,0,1,17v.5a3.83,3.83,0,0,1-.5,1.5l1-.5q0,62.5-1,125t3,125c1,.67,3.66,1.5,8,2.5a113.79,113.79,0,0,0,13.5,2.25,56.44,56.44,0,0,0,13,0c4-.5,6.16-2.09,6.5-4.75,1-2.33,1.41-5.66,1.25-10s-.42-7.83-.75-10.5q-2.5-27.5-3.25-55.25t.25-55.25a5.36,5.36,0,0,1,2.5-5,15.75,15.75,0,0,1,5.75-2,41.48,41.48,0,0,1,6.25-.5h5.5c2.66,0,5.41.09,8.25.25a44.22,44.22,0,0,0,8.25-.25,100,100,0,0,1,17,15.5q9,10,17.75,21.25t17.25,22.5q8.49,11.25,15.5,19.25,12.5,14.5,25,28.75T559.89,517c2.33,0,5.5-.16,9.5-.5s8.08-.83,12.25-1.5,8.16-1.41,12-2.25a52.34,52.34,0,0,0,9.25-2.75A181.21,181.21,0,0,0,588.14,488.72ZM439.39,217.47q34-2,57,8.5t34,26.5a52.38,52.38,0,0,1,9.5,34.75q-1.5,18.75-16.75,33.5t-44.5,23q-29.25,8.25-73.75,2.75-1-8.49-1.75-25.75t-.5-36q.24-18.75,1.5-35.75t4.25-25.5a116.08,116.08,0,0,1,30.5-5.5Zm1.5,10.5a78.2,78.2,0,0,0-12.25,1q-6.25,1-12.25,2.5a164.66,164.66,0,0,0-2.5,21.25q-1,14.25-1.25,30t0,30.75q.24,15,1.25,24,38,4,63-3t38-19.75q13-12.75,14.5-28.25t-7.75-29.25q-9.25-13.74-29-22.25t-49.25-7.5l-.5.5Z"/></g></g></g></g></g></svg>